<svg width="463" height="418" viewBox="0 0 463 418" fill="none" xmlns="http://www.w3.org/2000/svg">
<path fill-rule="evenodd" clip-rule="evenodd" d="M388.246 82.2301C389.231 92.5695 388.172 102.632 385.4 112.019C413.132 122.084 434.053 147.373 437.036 178.695C440.269 212.639 421.475 243.604 392.355 257.424C386.316 316.909 338.998 365.82 277.21 371.705C238.268 375.415 201.743 361.254 175.761 335.936C171.108 336.891 166.356 337.606 161.52 338.067C88.6549 345.007 23.9602 291.565 17.0201 218.7C10.0799 145.835 63.5224 81.1403 136.387 74.2002C172.195 70.7896 206.03 81.9617 232.007 102.855C231.694 100.988 231.444 99.0965 231.262 97.1823C227.133 53.8324 258.928 15.3431 302.278 11.2142C345.628 7.08524 384.117 38.8801 388.246 82.2301Z" fill="#349AE3" fill-opacity="0.5"/>
<path fill-rule="evenodd" clip-rule="evenodd" d="M266.382 185.349C264.622 209.277 151.24 279.726 150.579 281.702C150.285 282.581 162.048 310.351 185.87 365.013L175.959 368.849C139.42 310.959 122.089 278.929 123.966 272.761C126.653 263.929 155.977 234.877 211.938 185.604L266.382 185.349Z" fill="#B28B67"/>
<path fill-rule="evenodd" clip-rule="evenodd" d="M183.262 352.668L167.08 358.536C132.959 320.185 119.584 288.542 122.022 272.42C123.648 261.671 152.871 232.667 209.691 185.408L267.543 185.408C265.569 240.822 160.478 281.913 159.072 284.275C157.666 286.636 171.5 309.764 183.262 352.668Z" fill="#2F3676"/>
<path fill-rule="evenodd" clip-rule="evenodd" d="M189.543 363.182C191.566 365.548 192.825 367.411 193.32 368.771C193.922 370.425 194.525 372.938 195.129 376.312C193.21 377.011 175.965 383.287 143.395 395.142C140.433 391.187 140.336 388.505 143.104 387.096C145.871 385.687 148.161 384.492 149.973 383.509L170.116 364.038C170.504 363.663 171.122 363.674 171.496 364.061C171.503 364.068 171.509 364.075 171.515 364.081L174.426 367.268C177.562 367.543 179.969 367.376 181.645 366.765C183.007 366.27 184.688 365.035 186.688 363.061L186.688 363.061C187.455 362.304 188.691 362.312 189.448 363.079C189.481 363.112 189.512 363.147 189.543 363.182Z" fill="#E4E4E4"/>
<path fill-rule="evenodd" clip-rule="evenodd" d="M253.346 185.349L303.854 306.137L353.497 408.254H341.784L213.644 185.349H253.346Z" fill="#997659"/>
<path fill-rule="evenodd" clip-rule="evenodd" d="M354.197 403.636C355.289 406.551 355.835 408.732 355.835 410.179C355.835 411.939 355.542 414.508 354.956 417.885C352.914 417.885 334.562 417.885 299.902 417.885C298.472 413.155 299.297 410.602 302.38 410.224C305.462 409.847 308.023 409.507 310.061 409.203L335.65 397.796C336.142 397.576 336.719 397.797 336.939 398.29C336.942 398.298 336.946 398.306 336.95 398.315L338.594 402.305C341.448 403.636 343.766 404.302 345.55 404.302C347 404.302 349.002 403.717 351.556 402.546L351.556 402.546C352.536 402.096 353.694 402.527 354.144 403.507C354.163 403.549 354.181 403.592 354.197 403.636Z" fill="#E4E4E4"/>
<path fill-rule="evenodd" clip-rule="evenodd" d="M349.014 387.04L322.989 391.902C302.867 362.433 218.655 241.599 209.422 185.349H267.358C298.192 226.012 329.833 357.084 349.014 387.04Z" fill="#5C63AB"/>
<path fill-rule="evenodd" clip-rule="evenodd" d="M235.276 67.8104C238.374 61.645 239.776 54.6863 237.544 47.8371C231.114 28.1027 204.001 39.5566 201.041 51.0642C198.081 62.5718 205.145 88.128 212.69 88.1717C215.699 88.1891 221.284 84.9164 226.503 79.7233L229.384 107.676L252.114 102.009L235.276 67.8104Z" fill="#B28B67"/>
<path fill-rule="evenodd" clip-rule="evenodd" d="M200.03 56.1517C199.928 54.7813 200.114 53.1847 200.248 51.8306C200.421 50.0849 200.927 48.4237 201.54 46.824C202.696 43.8121 204.271 40.9596 206.169 38.445C209.636 33.8517 214.659 30.4486 220.258 29.751C223.086 29.3987 226.009 29.772 228.707 30.9337C231.144 31.9833 233.688 33.7889 236.382 33.2925C239.313 32.7523 241.329 29.5674 243.255 27.4306C245.427 25.0216 247.884 23.0482 250.811 21.7896C255.713 19.6814 260.941 20.1957 265.499 23.4734C270.35 26.9613 274.691 32.7673 273.691 39.2406C273.505 40.4439 273.145 41.5089 272.49 42.4806C271.89 43.3716 270.892 44.4092 270.856 45.6026C270.818 46.8712 272.195 48.1519 272.849 49.1251C273.784 50.5194 274.64 52.0146 274.894 53.7205C275.31 56.522 274.227 59.5656 272.844 61.8201C271.436 64.1143 269.404 65.7352 267.075 66.8297C265.52 67.5604 263.892 68.1554 262.199 68.4487C261.359 68.5943 260.574 68.5487 259.729 68.5673C258.908 68.5854 258.524 68.8985 257.97 69.4857C255.395 72.2137 252.289 73.7951 248.677 74.3855C245.629 74.8835 242.008 75.0244 239.065 73.6036C235.798 72.0256 235.077 68.9058 234.886 65.4282C234.294 65.9277 232.479 66.5982 233.265 64.9993C233.577 64.3661 234.358 63.9451 234.848 63.4961C235.419 62.9733 235.974 62.3432 236.341 61.6311C237.822 58.7556 234.535 54.4749 231.736 54.3321C227.578 54.1201 228.064 59.7529 225.654 61.842C224.269 63.0432 222.335 62.3556 220.866 61.5275C218.899 60.4181 217.316 58.6931 215.873 56.896C214.685 55.416 213.544 53.8992 212.343 52.4313C211.782 51.7458 209.962 49.8661 210.382 48.8283C207.477 48.9713 204.679 50.8801 202.667 52.9696C201.836 53.8334 201.255 54.7021 201.001 55.9243C200.947 56.1862 200.875 56.9423 200.575 57.0475C200.015 57.2435 200.056 56.4961 200.03 56.1517Z" fill="#191847"/>
<path fill-rule="evenodd" clip-rule="evenodd" d="M173.283 176.899L142.549 200.19C134.145 202.605 127.14 205.548 121.534 209.022C120.217 210.258 118.643 212.744 124.185 212.222C129.727 211.701 135.58 211.4 136.379 213.27C137.177 215.14 133.858 217.452 135.451 219.966C136.512 221.642 141.313 217.309 149.854 206.966L180.46 193.707L173.283 176.899ZM292.823 175.598L272.43 176.034C285.729 216.265 292.901 237.61 293.948 240.068C296.304 245.597 291.673 254.162 289.709 258.756C296.417 261.603 295.516 250.64 303.98 254.38C311.706 257.794 317.648 264.121 326.407 258.53C327.484 257.843 328.633 255.305 325.717 253.389C318.45 248.615 307.953 240.22 306.505 237.422C304.532 233.607 299.971 212.999 292.823 175.598Z" fill="#B28B67"/>
<path fill-rule="evenodd" clip-rule="evenodd" d="M233.378 91.453L224.914 90.16C194.072 117.622 182.114 169.554 144.212 197.616L153.649 208.849C220.088 199.483 235.49 136.124 233.378 91.453Z" fill="#E87613"/>
<path fill-rule="evenodd" clip-rule="evenodd" d="M272.008 196.342C238.171 196.933 213.281 197.367 197.338 197.646C193.926 197.705 194.483 192.791 194.933 190.309C200.127 161.658 221.812 130.492 221.102 89.8495L242.582 86.1127C260.895 114.313 267.668 149.308 272.008 196.342Z" fill="#DDE3E9"/>
<path fill-rule="evenodd" clip-rule="evenodd" d="M269.965 113.668C273.078 112.719 275.519 110.589 277.288 107.278C284.913 93.0054 281.934 85.2727 273.477 82.8615C265.019 80.4502 257.608 85.8504 244.204 86.0844C243.475 86.0971 242.808 86.1542 242.203 86.2558L235.467 86.7563C217.26 152.335 212.685 195.956 221.74 217.62L280.512 216.594C284.135 224.613 287.586 231.352 290.864 236.813L306.878 236.534C307.539 188.016 295.235 147.061 269.965 113.668Z" fill="#FF9B21"/>
<path fill-rule="evenodd" clip-rule="evenodd" d="M267.129 183.311C265.549 198.732 262.74 209.953 258.701 216.974L280.512 216.594C276.285 207.24 271.825 196.146 267.129 183.311V183.311Z" fill="black" fill-opacity="0.1"/>
<path d="M461.003 231.062C457.561 238.748 443.348 237.91 426.014 239.319C379.968 243.082 361.778 249.198 357.213 240.656C356.731 239.765 357.142 235.699 357.98 227.584C358.176 225.748 358.336 224.125 358.55 222.288C358.854 219.72 359.228 216.492 359.888 212.462C360.423 209.216 360.566 208.966 360.869 206.63C361.225 203.955 361.368 201.869 361.439 200.478C362.099 189.136 361.261 183.893 363.437 181.004C363.686 180.665 363.99 180.362 364.328 180.094C365.22 179.381 366.076 179.131 367.592 178.757C380.361 175.618 391.81 175.814 409.108 173.96L409.197 173.942C410.517 173.799 422.554 172.515 439.086 171.267C449.179 170.5 451.944 170.411 453.673 171.124C454.03 171.267 454.28 171.427 454.654 171.641C455.136 171.944 455.582 172.301 455.992 172.711C458.078 174.887 459.255 179.096 460.414 190.081C460.914 194.807 461.199 198.712 461.377 201.815C461.681 207.147 461.752 211.196 461.77 212.39C461.912 223.376 461.984 228.868 461.003 231.062Z" fill="#FFF200"/>
<path d="M456.01 172.729C448.52 180.95 440.584 189.439 432.184 198.177C426.852 203.723 419.576 211.089 410.856 210.286C407.735 210.001 405.844 208.788 399.906 205.097C377.079 190.919 380.45 193.505 375.884 190.295C372.193 187.709 368.02 184.624 363.472 181.022C363.722 180.683 364.025 180.38 364.364 180.112C365.256 179.399 366.112 179.149 367.628 178.775C380.396 175.636 391.845 175.832 409.144 173.977L409.233 173.96C410.552 173.817 422.59 172.533 439.121 171.285C449.215 170.518 451.979 170.429 453.709 171.142C454.066 171.285 454.315 171.445 454.69 171.659C455.154 171.962 455.599 172.301 456.01 172.729Z" fill="#FF7300"/>
<path d="M439.71 218.258C439.674 218.258 439.639 218.258 439.585 218.258C438.979 218.258 437.588 218.222 436.197 217.384C436.072 217.313 435.947 217.223 435.84 217.152C435.662 217.241 435.412 217.366 435.091 217.473C435.091 217.473 434.913 217.527 434.645 217.598C434.645 217.598 434.146 217.705 433.665 217.723C433.005 217.741 430.33 217.348 430.134 216.064C430.009 215.262 430.883 214.281 431.453 214.352C431.792 214.388 431.756 214.78 432.434 215.351C432.702 215.565 433.397 216.153 434.253 216.064C434.431 216.046 434.574 216.011 434.663 215.975C434.11 215.404 433.254 214.317 432.951 212.765C432.898 212.48 432.256 209.127 434.324 207.593C435.43 206.773 436.732 206.88 436.839 206.898C437.106 206.934 438.123 207.058 438.908 207.843C440.192 209.109 439.888 211.089 439.781 211.82C439.425 214.21 437.659 215.743 437.267 216.082C437.231 216.118 437.213 216.136 437.196 216.153C437.748 216.528 438.658 216.992 439.835 217.116C442.956 217.402 445.114 214.834 445.345 214.548C444.935 214.174 444.293 213.496 443.919 212.462C443.045 210.019 444.204 206.987 446.237 205.828C446.612 205.614 447.468 205.168 448.359 205.4C449.768 205.792 450.16 207.433 450.071 208.699C449.911 210.732 449.055 212.747 447.646 214.406C448.716 215.066 449.59 215.19 450.25 215.101C451.551 214.941 452.283 214.013 452.925 214.37C453.299 214.584 453.477 215.155 453.37 215.565C453.21 216.153 452.479 216.367 452.015 216.51C451.284 216.724 450.624 216.688 449.911 216.581C449.108 216.457 447.913 216.189 446.558 215.529C444.579 217.277 442.1 218.258 439.71 218.258ZM436.839 208.235C436.143 208.235 435.68 208.681 435.519 208.824C434.77 209.519 434.503 210.803 434.77 212.462C434.859 213.015 435.145 214.192 435.947 215.155C436.019 215.101 436.108 215.03 436.215 214.923C436.447 214.709 437.606 213.603 438.087 211.552C438.337 210.465 438.604 209.323 437.962 208.699C437.534 208.235 436.892 208.235 436.839 208.235ZM447.664 207.112C447.575 207.076 447.004 206.862 446.487 207.112C445.328 207.665 445.203 210.108 445.684 211.82C445.898 212.569 446.201 213.14 446.398 213.461C447.325 212.729 447.86 211.963 448.145 211.463C448.609 210.661 449.126 209.751 448.876 208.699C448.805 208.378 448.52 207.433 447.664 207.112Z" fill="white"/>
<path d="M429.438 225.944C428.992 225.48 429.01 224.553 429.384 223.964C429.83 223.287 430.722 223.18 432.559 223.055C435.858 222.841 437.891 222.859 440.12 222.662C440.602 222.627 441.315 222.538 442.724 222.359C450.446 221.378 453.031 220.701 453.834 221.913C454.084 222.288 454.173 222.859 453.959 223.251C453.549 224.018 452.104 223.964 451.605 223.946C449.536 223.893 446.433 224.374 440.191 225.302C437.195 225.748 434.128 225.605 431.168 226.193C430.865 226.247 429.919 226.443 429.438 225.944Z" fill="#4E02C6"/>
<path d="M434.877 229.796C434.663 229.493 434.645 229.029 434.824 228.708C435.127 228.119 435.929 227.995 436.339 227.923C439.014 227.513 442.528 227.246 443.598 227.139C445.238 226.996 446.112 226.907 447.36 226.693C449.536 226.3 450.749 225.872 451.462 226.55C451.765 226.835 451.997 227.37 451.854 227.781C451.587 228.547 450.142 228.565 447.396 228.833C446.594 228.922 444.828 229.1 443.08 229.368C442.082 229.528 440.316 229.742 436.75 230.152C436.197 230.206 435.269 230.313 434.877 229.796Z" fill="#4E02C6"/>
<path d="M132.025 66.7375C131.962 66.8125 130.575 68.7875 129.187 70.8C128.6 71.6375 128.075 72.4125 127.612 73.0875C127.587 72.8 127.525 72.525 127.425 72.2375C127.312 71.9125 127.175 71.6125 127 71.325C126.637 70.7375 126.137 70.2 125.475 69.6625C126.4 68.3125 127.725 66.4 129.75 63.6625C133.212 58.975 134.875 57.075 134.187 55.175C134.15 55.075 134.112 54.975 134.062 54.875C134.375 55.3125 134.8 56.1375 135.237 57C135.775 58.0375 136.037 58.5625 136.15 58.9125C136.625 60.4125 135.462 61.8625 132.025 66.7375Z" fill="#04B25F"/>
<path d="M134.187 55.175C134.15 55.075 134.112 54.975 134.062 54.875C134.05 54.8375 134.025 54.8125 134.012 54.7875C133.912 54.625 133.787 54.475 133.625 54.325C133.087 53.825 132.1 53.3125 130.137 52.3125C121.312 47.825 120.575 47.8125 119.837 47.9875C118.037 48.4125 117.35 49.7 113.562 55.2625C111.587 58.1625 109.887 60.5875 108.625 62.3625C109.75 62.55 110.962 62.8625 112.35 63.2125C112.7 63.3 113.312 63.4625 114.125 63.725C115.375 64.1375 117.087 64.8 119.05 65.8125C119.225 65.9 119.387 65.9875 119.562 66.0875C119.725 66.175 119.887 66.2625 120.05 66.35C122.475 67.675 124.262 68.6625 125.5 69.675C126.425 68.325 127.75 66.4125 129.775 63.675C133.212 58.9625 134.862 57.075 134.187 55.175Z" fill="#ECD3EF"/>
<path d="M116.837 54.9624C116.775 54.9874 115.937 55.2374 115.612 55.9874C115.55 56.1249 115.45 56.3624 115.512 56.6499C115.562 56.9249 115.762 57.1749 116.525 57.6124C117.625 58.2374 118.275 58.6249 118.85 58.3499C119.1 58.2249 119.262 58.0249 119.45 57.7749C119.662 57.4999 119.912 57.1874 119.925 56.8124C119.95 56.1499 119.2 55.6749 118.85 55.4499C118.487 55.1999 117.725 54.7124 116.837 54.9624Z" fill="#FC5832"/>
<path d="M124.963 58.875C124.9 58.9 124.063 59.15 123.738 59.9C123.675 60.0375 123.575 60.275 123.638 60.5625C123.688 60.8375 123.888 61.0875 124.65 61.525C125.75 62.15 126.4 62.5375 126.975 62.2625C127.225 62.1375 127.388 61.9375 127.575 61.6875C127.788 61.4125 128.038 61.1 128.05 60.725C128.075 60.0625 127.325 59.5875 126.975 59.3625C126.613 59.1125 125.85 58.625 124.963 58.875Z" fill="#FC5832"/>
<path d="M120.6 93.6249C117.588 97.9624 113.575 103.987 110.6 108.687C104.913 117.65 104.663 119.012 102.175 120.175C98.3125 121.962 93.8875 120.375 85.075 117.25C85.075 117.25 78.6125 114.962 74.1625 110.362C73.3 109.475 72.8 108.625 72.4875 107.837C72.325 107.437 71.825 106.037 72.0375 104.2C72.1375 103.362 72.2625 102.375 72.625 101.65C72.525 102 72.5 102.35 72.5625 102.75C73.1125 106.487 77.8 108.575 83.375 111.062C89.35 113.725 95.3 116.387 100.475 113.987C102.963 112.837 103.213 111.462 108.9 102.5C111.875 97.7999 115.888 91.7624 118.9 87.4374C125.8 77.5249 128.425 75.2499 127.413 72.2499C127.3 71.9249 127.163 71.6249 126.988 71.3374C128.213 72.8999 129.088 75.7749 129.1 78.4499C129.138 82.7499 126.863 84.6249 120.6 93.6249Z" fill="#04B25F"/>
<path d="M127.612 73.0875C127.587 72.8 127.525 72.525 127.425 72.2375C127.312 71.9125 127.175 71.6125 127 71.325C126.637 70.7375 126.137 70.2 125.475 69.6625C124.15 68.5875 122.212 67.525 119.537 66.075C116.075 64.1875 113.275 63.4375 112.325 63.1875C110.937 62.8375 109.712 62.525 108.6 62.3375C106.975 62.0625 105.55 62.025 104.062 62.4625C101.4 63.2375 100.187 65.05 96.25 70.3375C94.6 72.55 91.9375 76.0875 88.45 80.55C88.45 80.55 84.0875 84.3375 80.4125 90.5875C76.0625 97.9625 73.1875 99.7125 72.625 101.625C72.525 101.975 72.5 102.325 72.5625 102.725C73.1125 106.463 77.8 108.55 83.375 111.038C89.35 113.7 95.3 116.363 100.475 113.963C102.962 112.813 103.212 111.438 108.9 102.475C111.875 97.775 115.887 91.7375 118.9 87.4125C125.15 78.4625 127.9 75.7375 127.612 73.0875Z" fill="#DD00C1"/>
<path d="M123.175 73.8125C122.525 71.8875 120.462 70.7625 116.562 68.65C113.662 67.075 111.312 66.4375 110.525 66.2375C107.662 65.5125 105.687 65.0125 103.6 65.625C101.712 66.175 100.137 68.2 97.05 72.225C91.1875 79.8875 91.7 79.3125 90.5125 80.7875C87.225 84.875 86.2 85.6875 83.775 89.2C82.425 91.1375 82.6375 91.25 80.8125 93.675C78.325 96.975 76.9625 97.7875 77.2 99.375C77.6625 102.5 81.5875 104.263 86.2625 106.35C91.275 108.588 96.2625 110.813 100.6 108.8C102.687 107.838 102.887 106.688 107.662 99.175C110.162 95.2375 113.512 90.175 116.05 86.55C121.812 78.2375 124.025 76.3125 123.175 73.8125ZM112.95 86.6875C112.5 87.225 112.137 87.5875 112.025 87.6875C110.312 89.3625 108.95 92.975 106.462 96.9875C104.887 99.5375 104.9 98.95 103.95 100.688C103.325 101.838 102.737 103.163 101.287 104.163C101.287 104.163 100.912 104.438 100.487 104.638C96.9875 106.263 92.9625 104.463 88.925 102.663C85.15 100.975 81.9875 99.5625 81.6125 97.0375C81.425 95.75 82.525 95.1 84.525 92.4375C86 90.475 85.825 90.4 86.9125 88.8375C88.875 86.0125 89.7 85.35 92.35 82.05C92.5 81.875 92.5875 81.7375 92.8 81.4875C93.8625 80.1625 94.675 79.225 94.875 78.975C96.0375 77.6125 96.475 76.7 97.6125 75.1375C99.9125 71.9875 101.037 70.35 102.9 69.8125C104.587 69.3125 106.187 69.725 108.487 70.3C109.125 70.4625 111.025 70.975 113.362 72.25C116.687 74.0625 118.375 74.9375 118.687 76.4125C119.225 78.8375 116.187 81.0125 114.337 84.5375C114.212 84.8125 113.762 85.6875 112.95 86.6875Z" fill="#ECD3EF"/>
<path d="M92.2625 88.1625C91.975 88.225 91.6625 88.4375 91.0875 89.625C90.5625 90.725 90.15 91.5625 90.0875 92.7875C90.05 93.3875 90.15 93.125 90.2125 94.6375C90.275 96.1875 90.175 96.675 90.575 97.2C90.9125 97.65 91.4375 97.875 91.65 97.9625C92.1875 98.1875 92.35 98.075 93.025 98.2875C93.7625 98.5125 93.8125 98.725 94.3875 98.925C94.9375 99.1125 95.375 99.075 96.25 98.9875C97.15 98.9125 98 98.8375 98.875 98.35C99.15 98.2 99.3 98.075 100.187 97.2375C102.275 95.2625 102.612 94.85 102.912 94.4375C103.55 93.5625 104.1 92.7875 103.825 92.1625C103.737 91.975 103.45 91.75 102.862 91.3125C102.2 90.8125 101.875 90.5625 101.625 90.5625C101.3 90.5625 101.05 90.8125 100.212 92.0125C99.25 93.3875 99.4125 93.325 99.125 93.625C99.05 93.7 97.6625 95.1375 95.9 94.8125C95.6375 94.7625 94.925 94.625 94.375 94.0125C93.7875 93.35 93.575 92.325 93.85 91.525C94.05 90.95 94.3875 90.85 94.925 89.7125C95.2 89.1125 95.2 88.9625 95.1375 88.8375C94.975 88.5125 94.4875 88.625 93.2 88.3375C92.575 88.1875 92.5 88.1 92.2625 88.1625Z" fill="#04B25F"/>
<g clip-path="url(#clip0_1_717)">
<path d="M96.4926 297.931C95.8238 299.116 94.7051 300.486 83.25 304.703C72.1243 308.797 68.5976 309.206 55.8224 313.654C55.8224 313.654 53.3879 314.507 49.8906 315.564C37.2447 319.43 34.8966 318.755 33.5756 317.799C32.5428 317.047 32.0255 315.484 31.0279 312.398C28.1945 303.674 26.7894 299.308 26.6521 298.806C24.6037 290.681 23.4119 285.254 22.3271 280.439C21.7484 277.91 21.2399 275.7 20.7729 273.757C30.7201 270.747 48.5696 265.365 50.2932 264.964C52.7146 264.405 72.9106 258.043 75.0306 257.574C76.476 257.256 81.7644 255.601 84.958 254.583C87.6138 262.629 90.6834 270.538 93.1421 278.642C97.3046 292.323 98.1602 294.933 96.4926 297.931Z" fill="#ECD3EF"/>
<path d="M84.9614 254.595C81.7678 255.612 76.491 257.264 75.034 257.586C72.914 258.055 52.718 264.416 50.2966 264.975C48.5614 265.38 30.7235 270.759 20.7763 273.768C17.9329 261.713 17.3402 260.236 18.6558 257.962C19.8425 255.89 21.3334 255.344 27.9557 253.505C28.2123 254.11 28.5036 254.705 29.2442 256.592C29.9177 258.297 30.1452 258.974 30.7823 259.163C31.2828 259.316 31.5265 258.991 33.0033 258.525C35.1027 257.86 35.4038 258.022 35.6916 257.633C36.1756 256.971 35.5277 256.154 34.2641 252.643C34.1439 252.325 34.0527 252.062 33.9719 251.834C35.2191 251.486 36.5707 251.108 38.0464 250.68C46.2233 248.338 54.5006 246.333 62.5724 243.682C62.6024 243.824 62.6474 243.975 62.6878 244.152C63.5572 247.782 63.4633 248.82 64.2312 249.108C64.2764 249.132 64.3262 249.13 64.4212 249.152C65.3342 249.334 66.0866 249.021 66.8819 248.682C69.1276 247.746 69.1624 247.736 69.2471 247.597C69.4933 247.195 69.3436 246.356 69.0478 244.689C68.8843 243.804 68.838 243.691 68.6423 242.613C68.5813 242.24 68.533 241.952 68.4835 241.701C73.314 240.119 76.046 239.543 78.6515 241.038C81.3474 242.581 82.043 245.29 83.8058 250.938C84.1763 252.178 84.5631 253.388 84.9614 254.595Z" fill="#4E02C6"/>
<path d="M34.256 252.658C34.1359 252.34 34.0446 252.077 33.9638 251.849C33.7467 251.207 33.585 250.75 33.2211 249.785C32.0959 246.864 31.7394 246.516 31.3189 246.376C30.9436 246.261 30.1344 246.553 28.5195 247.149C26.9857 247.721 26.8546 247.874 26.7629 247.99C26.4751 248.379 26.384 248.961 27.3736 251.936C27.6288 252.706 27.7882 253.113 27.9558 253.505C28.2123 254.11 28.5036 254.705 29.2442 256.592C29.9178 258.297 30.1453 258.974 30.7824 259.163C31.2828 259.316 31.5265 258.991 33.0034 258.525C35.1027 257.86 35.4038 258.022 35.6917 257.633C36.1826 256.994 35.5312 256.166 34.256 252.658Z" fill="#ECD3EF"/>
<path d="M66.3961 236.151C65.9167 235.94 65.3614 236.068 64.2325 236.304C62.7987 236.619 62.0859 236.769 61.6901 237.304C61.3825 237.711 61.3274 238.245 61.9694 241.198C62.2195 242.373 62.3545 242.825 62.576 243.693C62.6059 243.836 62.651 243.987 62.6913 244.164C63.5608 247.793 63.4668 248.831 64.2348 249.12C64.2799 249.144 64.3298 249.142 64.4248 249.164C65.3377 249.346 66.0901 249.033 66.8854 248.694C69.1311 247.758 69.1659 247.748 69.2507 247.609C69.4968 247.207 69.3472 246.368 69.0513 244.701C68.8878 243.815 68.8416 243.703 68.6459 242.625C68.5849 242.252 68.5366 241.963 68.487 241.713C68.3973 241.159 68.3143 240.754 68.0582 239.77C67.2391 236.732 66.8189 236.34 66.3961 236.151Z" fill="#ECD3EF"/>
<path d="M31.7302 279.877C32.4745 278.607 34.8683 274.912 39.3927 273.573C40.5519 273.227 42.6187 272.622 44.9319 273.434C47.9875 274.491 50.6119 277.697 50.5275 281.472C50.4301 285.415 47.412 288.88 43.2708 289.599C44.7949 289.333 47.2634 289.101 50.1353 289.796C52.2472 290.314 56.5207 291.349 58.1216 294.848C59.7258 298.358 57.683 302.214 57.2196 303.072C53.2326 310.563 42.3455 310.722 41.5494 310.72C41.4374 310.387 41.2769 309.892 41.0934 309.278C40.8372 308.42 40.708 307.903 40.5534 307.343C40.378 306.714 40.116 305.794 39.7268 304.661C45.0162 305.164 48.9114 302.776 49.2817 300.253C49.6905 297.48 45.7585 294.715 45.5524 294.574C43.7427 293.335 41.904 293.013 40.9041 292.92C40.2292 291.379 39.5543 289.838 38.8678 288.301C43.4459 286.592 45.9396 283.613 45.4682 281.443C45.1536 280.009 43.6144 279.295 43.4823 279.233C41.093 278.166 37.4722 279.74 34.754 283.406C34.2077 282.887 33.6371 282.288 33.0654 281.6C32.5482 281.009 32.1108 280.433 31.7302 279.877Z" fill="#FA0018"/>
<path d="M84.5509 277.609C84.1203 276.21 82.923 272.54 79.2631 269.883C74.75 266.61 69.7317 267.225 67.9259 267.563C66.5512 267.822 62.104 268.658 59.1884 272.635C55.2491 278.004 57.471 284.512 57.8312 285.591C58.3116 286.988 59.5278 290.425 62.9945 292.774C67.8853 296.085 73.462 294.634 75.3375 294.15C77.5526 293.576 81.335 292.585 83.6776 289.057C86.6796 284.524 85.0403 279.206 84.5509 277.609ZM78.888 279.49C79.2785 282.404 78.0383 284.593 77.6912 285.164C77.2511 285.889 76.046 287.814 73.5489 288.712C70.0108 289.971 66.9562 288.029 66.7049 287.865C64.4366 286.358 63.6849 284.095 63.4612 283.177C62.9099 280.993 63.452 279.215 63.6776 278.491C63.9114 277.752 65.1699 273.765 69.0764 272.598C71.9744 271.732 74.4226 272.996 74.799 273.199C78.1644 274.997 78.7812 278.626 78.888 279.49Z" fill="#FA0018"/>
</g>
<defs>
<clipPath id="clip0_1_717">
<rect width="72.5891" height="72.5891" fill="white" transform="translate(11 251.776) rotate(-16.6318)"/>
</clipPath>
</defs>
</svg>
