<svg width="492" height="436" viewBox="0 0 492 436" fill="none" xmlns="http://www.w3.org/2000/svg">
<path fill-rule="evenodd" clip-rule="evenodd" d="M388.246 123.23C389.231 133.569 388.172 143.632 385.4 153.019C413.132 163.084 434.053 188.373 437.036 219.695C440.269 253.639 421.475 284.604 392.355 298.424C386.316 357.909 338.998 406.82 277.21 412.705C238.268 416.415 201.743 402.254 175.761 376.936C171.108 377.891 166.356 378.606 161.52 379.067C88.6549 386.007 23.9602 332.565 17.0201 259.7C10.0799 186.835 63.5224 122.14 136.387 115.2C172.195 111.79 206.03 122.962 232.007 143.855C231.694 141.988 231.444 140.097 231.262 138.182C227.133 94.8324 258.928 56.3431 302.278 52.2142C345.628 48.0852 384.117 79.8801 388.246 123.23Z" fill="#349AE3" fill-opacity="0.5"/>
<path d="M268.745 27.6546C271.83 34.2343 273.914 42.3033 270.719 48.2954C268.275 52.8944 264.44 53.8338 260.201 61.1945C258.525 64.1155 257.531 66.7501 256.937 68.5615C255.569 68.4519 253.903 68.4071 252.156 68.4132C251.709 68.4171 251.262 68.4209 250.808 68.4331C249.996 68.4548 249.184 68.4765 248.389 68.514C247.861 68.5363 247.35 68.5743 246.848 68.604C245.68 68.684 244.602 68.786 243.695 68.9077C243.672 67.7303 244.015 66.2993 242.663 64.353C240.56 61.3463 228.274 51.5841 228.509 43.6562C228.744 35.7284 231.238 22.6621 242.069 19.683C252.901 16.7039 264.945 19.5422 268.745 27.6546Z" fill="#FFD800"/>
<path d="M256.946 68.5695C255.578 68.4598 253.911 68.4151 252.164 68.4212C251.718 68.425 251.271 68.4288 250.816 68.441C250.004 68.4627 249.192 68.4844 248.397 68.522C247.87 68.5442 247.359 68.5823 246.856 68.612C245.688 68.692 244.61 68.7939 243.703 68.9157C242.109 69.129 241.043 69.4012 240.93 69.7211C240.479 71.0819 241.272 72.1656 242.758 72.4346C242.758 72.4346 240.786 73.7629 240.843 74.9557C240.891 76.1407 243.369 76.765 243.427 76.7878C243.378 76.8053 241.929 77.2991 242.171 78.7469C242.422 80.2189 244.846 79.7316 244.846 79.7316C244.846 79.7316 245.667 81.8708 247.826 82.0974C249.993 82.3319 255.903 82.7587 257.185 80.5714C258.475 78.3757 258.253 77.0573 258.253 77.0573C258.253 77.0573 259.927 77.9794 260.302 76.1819C260.668 74.3766 258.502 74.5239 258.502 74.5239C258.502 74.5239 262.744 72.7367 259.125 71.0786C259.125 71.0786 260.654 71.1189 260.284 69.4389C260.207 69.0022 258.875 68.721 256.946 68.5695Z" fill="#009D6F"/>
<path d="M263.866 46.3257C261.67 48.9925 259.148 50.3843 258.371 50.787C255.67 52.1511 252.798 56.2659 252.173 68.429C251.726 68.4329 251.279 68.4367 250.825 68.4489C250.902 65.2782 251.285 60.1493 252.939 55.1815C254.278 51.1646 255.472 50.2227 255.918 49.902C257.289 48.9229 258.669 48.8697 259.829 47.2949C260.308 46.6403 261.063 45.4258 260.666 44.5589C260.114 43.3712 258.064 44.1654 255.818 43.1287C252.412 41.5461 252.575 37.6013 250.606 37.5077C248.906 37.4313 248.806 40.3914 245.426 42.2043C242.943 43.5382 240.903 42.9021 240.5 44.2129C240.014 45.794 241.699 47.7557 242.169 48.3118C244.325 50.8622 246.737 56.2818 248.413 68.5215C247.886 68.5437 247.375 68.5818 246.872 68.6115C246.199 64.0959 244.018 51.8372 239.553 47.7156C237.313 45.655 236.771 43.6383 237.249 42.0656C237.787 40.2962 240.648 41.2678 244.032 39.3004C247.92 37.0352 247.901 33.8834 249.989 33.8681C252.653 33.8618 252.71 39.0276 257.233 41.0353C260.801 42.6297 267.328 42.1058 263.866 46.3257Z" fill="#8D41E5"/>
<path d="M226.416 45.9142C226.416 45.9142 221.198 49.1818 219.847 50.2904C218.495 51.399 215.893 52.8255 215.893 52.8255L211.751 46.5097L225.762 43.3155L226.416 45.9142Z" fill="#FFD800"/>
<path d="M226.134 37.8131L220.489 38.1754L213.865 38.9863L214.394 31.7168C216.487 32.2296 218.681 32.8371 220.958 33.5399C222.949 34.161 224.843 34.8009 226.648 35.4513C226.474 36.2359 226.3 37.0206 226.134 37.8131Z" fill="#FFD800"/>
<path d="M228.36 28.9871C227.12 28.1915 225.864 27.3964 224.6 26.6096C222.897 25.534 221.196 24.4908 219.51 23.4472C220.869 21.6965 222.244 19.9454 223.603 18.1948C224.555 20.0948 225.455 21.5332 226.123 22.4984C226.41 22.9132 226.587 23.1441 227.077 23.846C228.167 25.4011 229.022 26.6863 229.597 27.5484C229.171 28.031 228.762 28.5132 228.36 28.9871Z" fill="#FFD800"/>
<path fill-rule="evenodd" clip-rule="evenodd" d="M139.087 79.0494C135.56 74.9095 133.173 69.8361 133.571 64.1511C134.721 47.7711 157.522 51.3745 161.958 59.6417C166.393 67.9089 165.866 88.8794 160.134 90.357C157.848 90.9462 152.978 89.5028 148.021 86.5153L151.132 108.525H132.763L139.087 79.0494Z" fill="#B28B67"/>
<path fill-rule="evenodd" clip-rule="evenodd" d="M148.94 65.9601C149.643 75.7551 151.503 80.6526 154.52 80.6526C159.045 80.6526 162.885 77.7796 164.871 77.7796C166.318 77.7796 165.995 79.591 165.036 80.9341C164.244 82.0422 160.389 83.1103 160.389 84.8282C160.389 86.5461 163.435 85.217 163.435 86.2359C163.435 87.9212 163.97 91.0899 161.045 91.0899C158.085 91.0899 149.597 90.0111 148.143 85.6176C147.204 82.7822 146.597 76.9066 146.322 67.991C146.143 67.9696 145.96 67.9586 145.774 67.9586C143.238 67.9586 141.182 70.0147 141.182 72.5511C141.182 73.8386 141.712 75.0025 142.566 75.8363C141.503 77.3362 140.312 78.9031 138.947 80.5198C133.821 77.444 130.016 68.4401 135.029 59.7905C136.414 55.5532 139.55 53.2899 143.254 52.239C146.255 50.9839 149.369 50.8424 151.999 51.5948C157.153 52.0369 161.755 53.6085 163.06 54.5419C163.06 59.4215 162.114 60.8692 154.038 60.7416C152.054 61.7896 150.529 63.5942 148.94 65.9601Z" fill="#191847"/>
<path fill-rule="evenodd" clip-rule="evenodd" d="M126.639 172.053L154.389 269.433L174.635 341.207H189.402L167.888 172.053H126.639Z" fill="#191847"/>
<path fill-rule="evenodd" clip-rule="evenodd" d="M119.218 172.053C118.576 222.244 116.388 249.619 115.714 254.18C115.04 258.74 104.85 287.749 85.1441 341.207H100.442C125.529 289.923 139.533 260.914 142.455 254.18C145.376 247.445 154.392 220.07 167.971 172.053H119.218Z" fill="#2F3676"/>
<path fill-rule="evenodd" clip-rule="evenodd" d="M83.7768 354.985L84.5422 338.911H100.616C108.237 344.269 118.188 348.606 130.466 351.923V354.985H101.381L91.4309 353.454V354.985H83.7768Z" fill="#191847"/>
<path fill-rule="evenodd" clip-rule="evenodd" d="M172.564 354.985L173.329 338.911H189.402C197.024 344.269 206.974 348.606 219.253 351.923V354.985H190.168L180.218 353.454V354.985H172.564Z" fill="#191847"/>
<path fill-rule="evenodd" clip-rule="evenodd" d="M191.208 159.508L214.313 179.096C220.794 181.341 226.158 183.944 230.404 186.907C231.384 187.934 232.515 189.955 228.196 189.317C223.878 188.68 219.307 188.203 218.604 189.643C217.901 191.082 220.405 193.036 219.054 194.95C218.154 196.225 214.573 192.619 208.312 184.129L184.893 172.441L191.208 159.508ZM86.5836 151.032L100.14 153.001C85.5884 184.574 77.787 201.271 76.736 203.093C74.3713 207.193 77.1524 214.335 78.2396 218.115C72.7452 219.702 74.4999 211.213 67.5526 213.33C61.2115 215.262 55.9787 219.644 49.6984 214.434C48.9262 213.793 48.2758 211.699 50.73 210.479C56.8442 207.439 65.8214 201.875 67.2169 199.825C69.1198 197.029 75.5754 180.765 86.5836 151.032Z" fill="#B28B67"/>
<path fill-rule="evenodd" clip-rule="evenodd" d="M143.245 95.7673L151.645 92.9893C163.04 121.455 180.034 148.997 208.428 172.26L201.407 184.374C176.452 169.674 152.83 158.255 143.245 136.198C140.028 128.795 142.982 104.619 143.245 95.7673Z" fill="#C5CFD6"/>
<path fill-rule="evenodd" clip-rule="evenodd" d="M114.393 175.88C138.456 178.432 157.396 178.432 171.214 175.88C172.925 175.564 173.196 172.698 172.402 170.753C160.039 140.461 151.561 114.029 151.561 92.9893C149.293 94.1329 145.323 94.3043 139.651 93.5035C124.409 115.186 117.403 140.064 114.393 175.88Z" fill="#323337"/>
<path fill-rule="evenodd" clip-rule="evenodd" d="M135.862 91.6861H142.214C143.693 100.385 148.358 218.179 162.759 256.712H84.8372C86.5265 221.412 99.8525 179.009 113.352 143.526C101.415 154.449 91.0113 172.957 82.1403 199.051L67.5447 195.305C78.397 148.541 100.709 114.17 134.482 92.1905C134.555 92.0216 134.628 91.8535 134.7 91.6861H135.262C135.469 91.5533 135.677 91.421 135.884 91.2891L135.862 91.6861V91.6861Z" fill="#DDE3E9"/>
<path fill-rule="evenodd" clip-rule="evenodd" d="M371.799 79.0647C375.326 74.9249 377.713 69.8514 377.314 64.1664C376.165 47.7864 353.364 51.3898 348.928 59.657C344.493 67.9242 345.02 88.8947 350.752 90.3723C353.038 90.9615 357.908 89.5181 362.865 86.5306L359.754 108.54H378.123L371.799 79.0647Z" fill="#915B3C"/>
<path fill-rule="evenodd" clip-rule="evenodd" d="M356.184 50.6528C358.694 49.8874 362.338 49.6279 363.871 49.8035C362.999 47.7144 362.653 45.3869 362.935 43.1206C363.209 40.9185 364.193 39.0435 365.103 37.0787C365.523 36.1731 365.998 35.2724 366.707 34.5797C367.429 33.874 368.343 33.4081 369.301 33.1859C370.282 32.9584 371.307 32.9773 372.29 33.1838C372.724 33.2751 373.114 33.4738 373.54 33.5842C373.977 33.6974 374.188 33.4242 374.505 33.1497C375.268 32.4883 376.387 32.1618 377.353 32.0449C378.437 31.9139 379.561 32.0773 380.594 32.4335C381.6 32.7803 382.567 33.3433 383.294 34.1637C383.618 34.5288 383.911 34.9444 384.102 35.4033C384.181 35.5916 384.194 35.7031 384.382 35.7721C384.555 35.836 384.759 35.8378 384.938 35.8986C386.672 36.486 388.155 37.826 388.963 39.5465C389.434 40.5502 389.657 42.3175 389.596 44.2982C389.534 46.279 387.746 51.4474 386.073 53.3326C384.58 55.0153 382.385 56.1257 380.267 56.6118C381.673 58.2188 382.609 60.2269 383.301 62.2691C384.053 64.4876 384.518 66.7926 384.69 69.1412C384.853 71.3727 384.868 73.7325 384.345 75.9163C383.855 77.9585 382.809 79.6338 381.062 80.6967C380.262 81.1836 379.4 81.5493 378.534 81.8836C377.681 82.213 376.825 82.5333 375.931 82.7182C374.239 83.0679 372.289 83.0078 370.986 81.6611C370.516 81.1755 369.999 80.5655 369.657 79.9723C369.534 79.759 369.459 79.6195 369.609 79.411C369.788 79.1613 370.078 78.97 370.309 78.7747C371.623 77.6609 372.436 76.1741 372.641 74.4071C372.849 72.6143 372.367 70.3002 370.624 69.5178C368.473 68.5519 366.103 69.6606 364.191 70.694C363.378 67.8254 361.709 65.2426 359.093 63.9268C356.198 62.4711 352.877 62.3007 349.902 61.0517C349.127 60.7263 348.337 60.3568 347.767 59.6936C347.528 59.4165 347.248 59.057 347.153 58.6904C347.028 58.2089 347.339 57.8052 347.578 57.4298C348.85 55.4394 353.674 51.4183 356.184 50.6528Z" fill="#191847"/>
<path fill-rule="evenodd" clip-rule="evenodd" d="M382.716 172.069L325.841 267.152L283.202 347.538H274.018L345.461 172.069L382.716 172.069Z" fill="#784931"/>
<path fill-rule="evenodd" clip-rule="evenodd" d="M288.817 343.827C289.674 346.112 290.102 347.823 290.102 348.958C290.102 350.338 289.872 352.352 289.412 355C287.811 355 273.421 355 246.242 355C245.12 351.291 245.768 349.289 248.185 348.993C250.602 348.698 252.61 348.431 254.208 348.192L274.273 339.247C274.659 339.075 275.112 339.249 275.284 339.635C275.287 339.641 275.29 339.648 275.293 339.655L276.582 342.783C278.82 343.827 280.638 344.349 282.037 344.349C283.174 344.349 284.743 343.89 286.746 342.972L286.746 342.972C287.515 342.62 288.423 342.957 288.775 343.726C288.791 343.759 288.805 343.792 288.817 343.827Z" fill="#E4E4E4"/>
<path fill-rule="evenodd" clip-rule="evenodd" d="M295.044 334.665L277.333 329.308C285.092 306.11 294.603 280.581 305.865 252.723C317.127 224.864 329.222 197.979 342.149 172.069H392.173C377.8 204.844 362.563 234.625 346.462 261.411C330.36 288.196 313.221 312.615 295.044 334.665Z" fill="#DB2721"/>
<path fill-rule="evenodd" clip-rule="evenodd" d="M386.453 172.069C391.821 205.482 402.174 248.171 403.151 249.488C403.803 250.366 427.252 258.224 473.5 273.061L471.516 281.16C416.366 273.203 387.306 267.029 384.338 262.639C379.885 256.055 357.65 204.034 349.038 172.069H386.453Z" fill="#915B3C"/>
<path fill-rule="evenodd" clip-rule="evenodd" d="M457.243 266.061L453.749 279.104C412.5 282.722 387.225 280.108 377.926 271.262C368.626 262.416 358.028 229.351 346.13 172.069H393.831C401.369 218.976 405.583 243.414 406.474 245.383C407.364 247.352 424.287 254.244 457.243 266.061Z" fill="#FF4133"/>
<path fill-rule="evenodd" clip-rule="evenodd" d="M471.235 269.687C473.635 269.241 475.394 269.116 476.511 269.313C477.871 269.553 479.814 270.129 482.342 271.042C482.064 272.619 479.565 286.79 474.846 313.556C470.999 314.017 469.139 313.032 469.268 310.6C469.396 308.168 469.482 306.145 469.525 304.529L464.2 283.215C464.097 282.805 464.347 282.39 464.757 282.287C464.764 282.285 464.771 282.284 464.778 282.282L468.083 281.555C469.5 279.533 470.33 277.833 470.572 276.455C470.77 275.336 470.59 273.711 470.034 271.579L470.034 271.579C469.821 270.761 470.311 269.925 471.129 269.711C471.164 269.702 471.199 269.694 471.235 269.687Z" fill="#E4E4E4"/>
<path fill-rule="evenodd" clip-rule="evenodd" d="M343.957 124.384L317.39 109.834C312.972 104.587 308.619 100.513 304.331 97.6102C303.021 97.0632 300.73 96.7321 302.873 100.535C305.016 104.339 307.098 108.435 306.007 109.607C304.915 110.779 302.193 109.142 300.891 111.089C300.022 112.386 304.673 114.437 314.842 117.239L334.146 134.914L343.957 124.384ZM302.348 136.661L290.679 130.25C289.041 124.02 287.084 120.885 284.807 120.846C283.057 120.032 286.104 127.905 282.787 127.222C279.471 126.539 271.377 120.519 269.982 121.742C267.919 123.55 269.759 129.102 271.926 131.864C275.978 137.027 279.332 138.792 287.623 141.104C291.958 142.313 296.645 144.735 301.684 148.372L302.348 136.661Z" fill="#915B3C"/>
<path fill-rule="evenodd" clip-rule="evenodd" d="M356.895 121.143C347.59 121.045 335.181 119.079 321.941 110.675L316.741 122.271C325.874 131.334 338.716 138.781 349.944 138.466C358.793 138.217 363.315 127.514 356.895 121.143Z" fill="#2026A2"/>
<path fill-rule="evenodd" clip-rule="evenodd" d="M344.366 139.739C334.487 142.203 317.92 139.297 294.667 131.023C288.899 142.955 286.233 151.463 286.668 156.544C306.616 166.964 323.713 171.61 337.799 171.917C337.352 180.275 338.369 188.228 341.787 195.495C348.812 210.434 389.952 196.598 403.785 199.322C412.447 171.19 395.698 159.757 395.685 141.756C395.67 122.044 379.842 91.7014 377.513 91.7014H356.276C355.104 106.756 349.206 123.348 344.366 139.739Z" fill="#1F28CF"/>
<path d="M90.0587 80.646C89.6027 85.51 88.8934 92.1726 84.7767 99.5193C83.2187 102.293 75.1881 115.847 62.8507 117.025C61.3687 117.164 59.7347 117.037 56.4541 116.797C52.7807 116.518 49.8421 116.239 47.4101 115.821C44.5854 115.34 42.4447 114.669 40.6334 113.592C37.4667 111.705 36.0734 107.689 35.5034 103.712C36.3394 103.877 37.2641 104.054 38.2774 104.244C42.0521 104.953 44.6107 105.308 48.1447 105.346C49.1201 105.359 50.0574 105.321 50.9821 105.219C51.8687 105.295 52.7427 105.346 53.5914 105.346C55.4407 105.371 57.1887 105.207 58.7974 104.776C58.6327 106.068 58.7087 107.411 59.2407 108.652C59.3547 108.918 59.4814 109.171 59.6461 109.425C61.3181 112.148 64.8394 113.073 67.1194 113.047C76.5687 112.946 85.9927 96.3906 88.1334 81.444C90.1094 67.7133 86.7654 49.752 78.8614 47.8646C76.3154 47.2566 73.2627 48.3206 70.5774 50.17C68.7661 51.424 67.1194 53.0326 65.9034 54.7426C64.5987 56.5793 63.8514 58.4413 63.4334 60.05C61.9387 59.29 60.2541 58.758 58.4807 58.34C56.1881 57.808 53.7434 57.466 51.2987 57.1366C46.7767 56.516 43.5721 56.0853 40.7981 56.7946C41.8114 53.9826 43.6607 50.512 47.0427 47.7126C52.3374 43.33 58.3921 43.064 63.4207 42.9246C63.5601 42.9246 63.6994 42.912 63.8387 42.912C69.2727 42.7726 75.8721 42.5953 81.3821 46.4966C92.5414 54.388 90.7681 73.0713 90.0587 80.646Z" fill="#262B2C"/>
<path d="M88.1334 81.444C85.9801 96.3907 76.5688 112.946 67.1194 113.047C64.8394 113.073 61.3181 112.148 59.6461 109.425C59.4941 109.171 59.3548 108.918 59.2408 108.652C63.6614 105.764 67.5121 102.901 68.2214 101.28C70.0581 97.1253 74.0608 89.2847 75.8214 80.2787C77.5821 71.2727 76.1381 64.0147 74.0608 56.4274C73.4908 54.3627 72.1861 52.2094 70.5774 50.17C73.2628 48.3207 76.3028 47.2567 78.8614 47.8647C86.7654 49.752 90.1094 67.7134 88.1334 81.444Z" fill="#ECD3EF"/>
<path d="M67.7527 63.6472C66.6254 62.0765 65.1434 60.9238 63.4334 60.0625C61.9387 59.3025 60.254 58.7705 58.4807 58.3525C56.188 57.8205 53.7434 57.4785 51.2987 57.1492C46.7767 56.5285 43.572 56.0978 40.798 56.8072C40.608 56.8578 40.418 56.9085 40.228 56.9718C40.3927 56.9718 40.57 56.9592 40.7474 56.9592C42.394 56.9465 44.1167 57.0478 45.8647 57.1492C47.676 57.2505 50.0954 57.4152 53.0467 58.3525C55.0607 58.9985 59.7474 60.4805 62.306 63.6472C62.306 63.6472 62.306 63.6598 62.3187 63.6598C65.5107 67.5992 62.1414 70.0945 62.0274 85.1805C62.0147 87.2072 61.9007 93.7812 60.102 98.5818C59.6207 99.8612 59.0254 101.027 58.278 101.939C58.0627 102.192 57.8474 102.395 57.6194 102.597C55.7827 104.181 53.5154 104.953 50.9947 105.245C51.8814 105.321 52.7554 105.371 53.604 105.371C55.4534 105.397 57.2014 105.232 58.81 104.801C60.3807 104.371 61.812 103.674 63.0534 102.597C64.586 101.28 65.5614 99.6078 67.4614 85.1805C69.792 67.4852 68.9307 65.2938 67.7527 63.6472Z" fill="#4E02C6"/>
<path d="M62.306 63.6473C62.306 63.6346 62.306 63.6346 62.306 63.6473C59.722 60.468 55.048 58.986 53.034 58.34C50.0827 57.4026 47.676 57.2506 45.852 57.1366C44.104 57.0353 42.3687 56.934 40.7347 56.9466C40.5574 56.9466 40.3927 56.9466 40.2154 56.9593C37.796 57.0226 35.5794 57.3773 33.7934 58.4033C31.7667 59.5686 29.854 61.874 27.8654 81.406C26.3074 96.72 26.9914 100.051 29.3347 101.913C30.1834 102.597 32.058 103.041 35.5034 103.725C36.3394 103.889 37.264 104.067 38.2774 104.257C42.052 104.966 44.6107 105.321 48.1447 105.359C49.12 105.371 50.0574 105.333 50.982 105.232C53.5027 104.953 55.77 104.181 57.6067 102.585C57.8347 102.382 58.05 102.179 58.2654 101.926C59.0127 101.014 59.608 99.8613 60.0894 98.5693C61.888 93.7686 62.002 87.1946 62.0147 85.168C62.1287 70.0693 65.498 67.5866 62.306 63.6473Z" fill="#ECD3EF"/>
<path d="M68.044 78.7078C67.626 78.8345 67.056 78.9232 66.486 78.7205C64.6493 78.1125 64.434 75.3512 64.4213 75.0219C64.2947 72.9825 65.3587 70.4745 67.2333 69.9552C67.436 69.9045 68.082 69.7272 68.728 69.9932C66.9167 70.5759 65.9033 73.0332 66.03 75.0219C66.0427 75.3512 66.2453 78.0618 68.044 78.7078Z" fill="#262B2C"/>
<path d="M70.3872 70.0186C69.7159 69.7146 69.0319 69.9046 68.8292 69.9553C68.7912 69.968 68.7532 69.9806 68.7152 69.9933C66.9039 70.576 65.8905 73.0333 66.0172 75.022C66.0425 75.3513 66.2452 78.062 68.0439 78.708C68.0565 78.708 68.0692 78.7206 68.0945 78.7206C69.2345 79.1006 70.3112 78.4166 70.3999 78.366C71.5272 77.6313 71.7045 76.2886 71.8439 75.212C71.8819 74.9586 72.3759 70.918 70.3872 70.0186Z" fill="#ECD3EF"/>
<path d="M42.7994 80.2912L46.878 71.6019L50.602 63.5712L52.198 64.1032C52.198 64.1032 46.5487 75.0979 46.384 75.5539C46.2194 76.0099 43.5974 80.8866 43.5974 80.8866L42.7994 80.2912Z" fill="#4E02C6"/>
<path d="M42.3687 79.8606C42.3687 79.8606 37.9607 78.4926 37.3147 78.4166C36.6687 78.3406 31.2727 77.0613 31.2727 77.0613L30.7027 80.7346C30.7027 80.7346 38.594 81.3299 39.3793 81.4693C40.1647 81.6086 42.7993 81.4693 42.7993 81.4693L42.3687 79.8606Z" fill="#F4F4F4"/>
<path d="M43.1793 78.7333C43.04 78.7333 42.3687 78.784 41.8873 79.316C41.3807 79.8733 41.4187 80.5827 41.444 80.8867C41.52 81.9 41.9 82.4827 42.394 82.698C43.1667 83.0147 44.0027 82.3307 44.1167 82.242C44.8007 81.672 45.396 80.4813 44.8513 79.582C44.4967 78.9993 43.8 78.708 43.1793 78.7333Z" fill="#FA0018"/>
<path d="M43.0526 81.102L50.9566 90.9694L56.2259 97.442L56.8213 96.758L51.6533 90.374L43.3313 80.5827L43.0526 81.102Z" fill="#FA0018"/>
<path d="M416.785 380.571C420.592 382.435 425.934 385.146 432.859 389.047C432.859 389.047 400.554 380.712 399.99 377.422C399.63 375.26 402.293 372.581 404.189 370.999C404.643 371.625 405.238 372.252 405.99 372.988C410.816 377.673 415.86 380.117 416.785 380.571Z" fill="#007B66"/>
<path d="M487.629 362.977C483.211 379.083 481.002 387.135 474.36 391.13C469.017 394.326 463.565 394.138 455.403 393.841C445.627 393.48 437.825 391.036 432.874 389.047C438.076 389.517 444.264 389.955 451.283 390.222C459.868 390.535 465.665 390.441 471.649 387.104C471.869 386.979 472.057 386.885 472.307 386.728C477.305 383.548 479.389 376.482 483.556 362.335C486.736 351.541 486.924 347.091 486.439 345.07C486.893 345.274 487.269 345.509 487.645 345.838C490.543 348.392 490.073 354.016 487.629 362.977Z" fill="#007B66"/>
<path d="M432.31 388.67C432.498 388.796 432.671 388.921 432.843 389.031C425.918 385.13 420.592 382.419 416.769 380.555C415.86 380.116 410.816 377.657 405.959 372.957C405.207 372.22 404.612 371.594 404.157 370.967C403.703 370.34 403.39 369.729 403.17 369.009C402.434 366.565 403.249 364.089 404.283 362.1C405.505 365.625 409.296 369.244 415.954 375.495C422.378 381.511 428.206 385.85 432.31 388.67Z" fill="#DB0032"/>
<path d="M483.54 362.304C479.373 376.451 477.289 383.516 472.292 386.697C472.041 386.853 471.853 386.963 471.634 387.073C465.633 390.41 459.852 390.519 451.267 390.19C444.248 389.924 438.076 389.485 432.859 389.015C433.626 388.937 434.378 388.859 435.13 388.78C445.893 387.668 454.823 386.618 461.56 385.835C463.252 385.647 466.464 385.271 469.472 383.015C472.981 380.383 474.281 376.607 474.908 374.712C481.974 353.217 483.634 345.462 483.572 342.391C484.402 342.564 485.029 342.893 485.577 343.441C485.859 343.723 486.204 344.13 486.423 345.023C486.909 347.06 486.721 351.509 483.54 362.304Z" fill="#DB0032"/>
<path d="M483.572 342.423C483.556 341.013 483.164 340.605 482.788 340.292C481.331 339.148 479.89 339.712 467.231 342.329C464.098 342.971 461.262 343.535 458.787 344.021C457.299 344.318 455.951 344.569 454.745 344.804C454.682 344.82 454.62 344.835 454.557 344.835C453.836 344.976 453.163 345.102 452.567 345.211C452.458 345.023 452.348 344.835 452.238 344.647C446.52 335.138 443.324 331.08 443.324 331.08C440.081 326.96 438.42 324.892 436.54 324.547C432.671 323.811 429.146 327.68 422.816 334.84C404.753 355.254 403.562 357.212 403.922 360.439C403.985 361.003 404.11 361.567 404.314 362.116C405.536 365.641 409.327 369.26 415.986 375.511C422.378 381.511 428.206 385.851 432.31 388.686C432.498 388.812 432.671 388.937 432.843 389.047C433.611 388.968 434.363 388.89 435.115 388.812C445.878 387.699 454.808 386.65 461.544 385.866C463.236 385.678 466.448 385.302 469.456 383.046C472.965 380.414 474.266 376.639 474.892 374.743C481.974 353.248 483.619 345.493 483.572 342.423Z" fill="#F9F3EF"/>
<path d="M454.557 344.835C451.298 350.898 448.04 356.961 444.797 363.04C444.797 363.04 439.501 378.033 438.295 380.79C437.559 382.467 436.133 386.164 435.13 388.812C434.378 388.89 433.626 388.968 432.859 389.047C432.686 388.921 432.514 388.812 432.326 388.686C433.454 386.728 435.099 383.751 436.744 380.446C440.88 372.158 441.851 367.254 444.765 359.938C446.254 356.225 448.604 350.898 452.238 344.663C452.348 344.851 452.458 345.039 452.567 345.227C453.178 345.102 453.836 344.976 454.557 344.835Z" fill="#003163"/>
<path d="M432.31 330.594C432.31 330.594 432.827 333.305 435.898 335.764C438.969 338.224 446.802 347.608 446.802 347.608L448.337 344.663L434.363 328.072L432.31 330.594Z" fill="#007B66"/>
<path d="M429.083 334.041C429.083 334.041 436.462 342.595 439.204 344.663C441.945 346.731 445.549 350.334 445.549 350.334L444.515 351.541C444.515 351.541 435.929 345.713 434.394 343.645C432.843 341.592 427.532 335.749 427.532 335.749L429.083 334.041Z" fill="#007B66"/>
<path d="M424.775 338.788C424.775 338.788 434.175 350.444 436.556 351.541C438.937 352.637 442.133 356.758 442.133 356.758L441.225 358.732C441.225 358.732 437.151 354.768 432.342 349.896C427.532 345.023 423.271 339.728 423.271 339.728L424.775 338.788Z" fill="#007B66"/>
<path d="M420.153 345.055C420.153 345.055 427.845 354.032 430.415 355.316C432.984 356.601 439.392 362.116 439.392 362.116L438.232 365.186L418.602 346.982L420.153 345.055Z" fill="#007B66"/>
<path d="M414.122 350.444C414.122 350.444 417.976 354.031 420.529 355.958C425.214 359.468 427.235 360.909 430.274 363.901C430.713 364.324 431.778 365.405 433.345 366.847C434.755 368.147 435.945 369.165 436.729 369.823C436.243 371.061 435.757 372.283 435.272 373.521C431.527 370.763 427.611 367.646 423.6 364.168C419.37 360.502 415.579 356.867 412.195 353.389C412.837 352.402 413.479 351.415 414.122 350.444Z" fill="#007B66"/>
<path d="M450.656 360.596C450.656 360.596 447.523 369.369 446.489 371.547C445.439 373.74 443.434 380.007 443.434 380.007C443.434 380.007 453.366 377.077 456.077 377.281C458.787 377.484 468.814 375.573 468.814 375.573L470.694 368.1L473.404 360.58H450.656V360.596ZM467.952 368.178L466.495 373.975C466.495 373.975 458.709 375.463 456.609 375.307C454.51 375.15 446.786 377.422 446.786 377.422C446.786 377.422 448.337 372.549 449.152 370.857C449.967 369.15 452.395 362.35 452.395 362.35H470.067L467.952 368.178Z" fill="#007B66"/>
<path d="M452.301 355.112C452.301 355.112 462.249 355.253 464.913 355.112C467.576 354.971 477.524 354.564 477.524 354.564L478.417 351.54C478.417 351.54 472.762 351.117 470.083 351.54C467.404 351.963 453.554 352.543 453.554 352.543L452.301 355.112Z" fill="#007B66"/>
<path d="M455.058 348.767C455.058 348.767 461.341 348.407 463.205 347.984C465.069 347.561 479.749 347.216 479.749 347.216L480.172 345.603C480.172 345.603 479.232 346.198 477.289 346.198C475.347 346.198 470.506 346.12 468.892 346.12C467.278 346.12 455.058 347.608 455.058 347.608V348.767Z" fill="#007B66"/>
<path d="M422.534 368.633C422.926 370.106 421.281 371.86 419.62 371.97C418.884 372.017 417.897 371.751 417.27 370.92C417.208 370.842 416.456 369.808 416.847 368.617C417.27 367.38 418.649 366.925 419.558 366.894C420.733 366.878 422.221 367.474 422.534 368.633Z" fill="#003163"/>
<path d="M456.296 382.2C456.187 383.36 455.074 384.206 453.962 384.315C452.881 384.409 451.534 383.814 451.283 382.67C451.079 381.762 451.643 380.853 452.27 380.43C452.709 380.132 453.163 380.085 453.617 380.023C454.228 379.96 454.855 379.882 455.403 380.242C456.061 380.649 456.375 381.48 456.296 382.2Z" fill="#003163"/>
<path d="M242.505 244.25L214.064 264.307L228.937 296.291L241.496 299.75L269.936 279.693L255.063 247.709L242.505 244.25Z" fill="white"/>
<path d="M242.505 244.25L257.378 276.235L228.937 296.291L214.064 264.307L242.505 244.25Z" fill="#FFCE51"/>
<path d="M242.505 244.25L214.064 264.307L228.937 296.291L241.496 299.75L269.936 279.693L255.063 247.709L242.505 244.25Z" stroke="black" stroke-linecap="round" stroke-linejoin="round"/>
<path d="M258.74 255.841L246.304 252.416M265.205 271.271L253.582 268.07M269.937 279.694L257.378 276.235M262.009 263.556L249.938 260.232M248.636 294.597L236.198 291.172M261.742 284.556L250.116 281.355M255.729 289.725L243.158 286.264" stroke="black" stroke-linecap="round" stroke-linejoin="round"/>
<path d="M242.505 244.25L257.378 276.235L228.937 296.291L214.064 264.307L242.505 244.25Z" stroke="black" stroke-linecap="round" stroke-linejoin="round"/>
<path d="M239.976 253.947L249.306 274.012L231.465 286.593L222.135 266.529L239.976 253.947Z" stroke="black" stroke-linecap="round" stroke-linejoin="round"/>
<path d="M237.585 263.121L241.673 271.912L233.856 277.424L229.769 268.633L237.585 263.121Z" stroke="black" stroke-linecap="round" stroke-linejoin="round"/>
</svg>
