<svg width="454" height="448" viewBox="0 0 454 448" fill="none" xmlns="http://www.w3.org/2000/svg">
<path fill-rule="evenodd" clip-rule="evenodd" d="M388.246 135.23C389.231 145.569 388.172 155.632 385.4 165.019C413.132 175.084 434.053 200.373 437.036 231.695C440.269 265.639 421.475 296.604 392.355 310.424C386.316 369.909 338.998 418.82 277.21 424.705C238.268 428.415 201.743 414.254 175.761 388.936C171.108 389.891 166.356 390.606 161.52 391.067C88.655 398.007 23.9603 344.565 17.0201 271.7C10.08 198.835 63.5225 134.14 136.387 127.2C172.195 123.79 206.03 134.962 232.007 155.855C231.694 153.988 231.444 152.097 231.262 150.182C227.133 106.832 258.928 68.3431 302.278 64.2142C345.628 60.0852 384.117 91.8801 388.246 135.23Z" fill="#349AE3" fill-opacity="0.5"/>
<path fill-rule="evenodd" clip-rule="evenodd" d="M273.501 47.1745C277.713 42.2311 280.563 36.1728 280.087 29.3843C278.714 9.82482 251.487 14.1277 246.191 23.9996C240.894 33.8716 241.524 58.9126 248.369 60.677C251.098 61.3806 256.914 59.657 262.832 56.0896L259.117 82.3716H281.053L273.501 47.1745Z" fill="#B28B67"/>
<path fill-rule="evenodd" clip-rule="evenodd" d="M266.676 36.5513C267.393 36.0583 268.25 35.7589 269.171 35.7589C271.695 35.7589 273.741 38.0095 273.741 40.3287C273.741 42.7415 272.601 44.6071 270.974 45.3985C271.843 47.0975 272.717 48.3306 273.741 48.5545C277.691 48.1549 282.881 38.3368 282.881 30.275C282.881 21.4511 275.859 13.8235 262.773 13.8235C251.011 13.8235 246.551 18.6732 246.322 22.9632C251.362 24.3485 260.169 24.8819 272.827 24.7912V25.7052L261.859 26.6191L260.031 32.103C262.939 31.8859 265.018 33.8806 266.676 36.5513Z" fill="#191847"/>
<path d="M290.192 317.263C251.325 317.263 219.816 287.187 219.816 250.086C219.816 212.985 251.325 182.909 290.192 182.909C329.06 182.909 360.568 212.985 360.568 250.086C360.568 287.187 329.06 317.263 290.192 317.263Z" fill="#C5CFD6"/>
<path fill-rule="evenodd" clip-rule="evenodd" d="M157.201 306.898C168.911 280.98 177.38 258.411 180.78 246.503C186.6 226.115 191.028 208.174 192.147 201.474C194.816 185.497 171.618 184.567 168.551 192.507C163.91 204.525 155.808 244.01 146.073 303.652L157.201 306.898ZM293.036 225.558C282.292 221.311 244.665 208.02 226.518 204.26C221.304 203.18 216.249 202.176 211.497 201.269C197.373 198.572 190.055 224.053 203.659 226.011C237.537 230.887 285.565 235.922 289.675 236.487C295.436 237.279 299.789 228.227 293.036 225.558Z" fill="#B28B67"/>
<path fill-rule="evenodd" clip-rule="evenodd" d="M202.828 194.257L260.945 164.672V158.231H254.033C197.808 172.559 169.077 181.74 167.84 185.777C167.826 185.82 167.814 185.864 167.803 185.907C167.775 185.944 167.747 185.982 167.72 186.019C156.577 201.344 149.904 276.159 147.713 281.761L169.065 284.946C177.233 254.659 203.365 233.559 202.671 197.285C202.858 196.221 202.905 195.211 202.828 194.257Z" fill="#474747"/>
<path fill-rule="evenodd" clip-rule="evenodd" d="M256.116 211.827C261.434 210.763 266.331 209.813 270.521 209.078C297.587 204.331 305.48 189.842 300.813 158.231H250.945C242.799 160.571 200.464 178.325 178.499 187.768C163.961 194.017 168.544 216.547 176.776 222.41C176.821 222.77 176.969 223.014 177.233 223.124C221.519 241.479 256.553 231.848 268.257 234.925L273.67 217.849L256.116 211.827Z" fill="#666666"/>
<path fill-rule="evenodd" clip-rule="evenodd" d="M289.363 222.844C292.264 223.121 294.324 223.557 295.542 224.151C297.023 224.874 299.065 226.175 301.666 228.054C300.828 229.773 293.295 245.217 279.068 274.387C274.5 273.65 272.69 271.907 273.638 269.158C274.586 266.409 275.35 264.114 275.932 262.273L276.834 236.056C276.852 235.552 277.275 235.157 277.779 235.174C277.788 235.174 277.797 235.175 277.805 235.175L281.838 235.429C284.13 233.574 285.642 231.896 286.374 230.394C286.969 229.174 287.298 227.25 287.361 224.62L287.361 224.62C287.385 223.61 288.223 222.812 289.232 222.836C289.276 222.837 289.319 222.84 289.363 222.844Z" fill="#E4E4E4"/>
<path fill-rule="evenodd" clip-rule="evenodd" d="M162.53 302.093C163.553 304.822 164.064 306.865 164.064 308.22C164.064 309.868 163.789 312.273 163.24 315.435C161.328 315.435 144.145 315.435 111.69 315.435C110.351 311.006 111.124 308.615 114.01 308.262C116.896 307.909 119.294 307.59 121.203 307.306L145.163 296.624C145.624 296.419 146.164 296.626 146.37 297.087C146.373 297.095 146.377 297.103 146.38 297.111L147.92 300.847C150.592 302.093 152.763 302.717 154.434 302.717C155.791 302.717 157.665 302.169 160.057 301.072L160.057 301.072C160.974 300.652 162.059 301.055 162.48 301.972C162.498 302.012 162.515 302.052 162.53 302.093Z" fill="#E4E4E4"/>
<path fill-rule="evenodd" clip-rule="evenodd" d="M206.208 140.072L177.053 161.481C169.146 163.614 162.54 166.269 157.235 169.445C155.982 170.586 154.467 172.899 159.664 172.499C164.861 172.1 170.346 171.913 171.063 173.686C171.78 175.458 168.635 177.578 170.085 179.97C171.051 181.565 175.617 177.567 183.782 167.975L212.652 156.004L206.208 140.072ZM338.14 131.155L322.044 134.069C340.726 171.141 350.732 190.742 352.062 192.873C355.055 197.667 352.033 206.306 350.893 210.862C357.516 212.527 355.069 202.469 363.448 204.707C371.096 206.749 377.523 211.759 384.801 205.28C385.695 204.484 386.384 201.957 383.405 200.603C375.981 197.23 365.036 190.965 363.285 188.576C360.898 185.319 352.516 166.179 338.14 131.155Z" fill="#B28B67"/>
<path fill-rule="evenodd" clip-rule="evenodd" d="M199.416 142.399C195.665 142.13 191.585 142.752 187.21 144.226C185.058 144.951 183.901 147.284 184.626 149.436C185.047 150.687 186.011 151.601 187.166 152.006C186.329 152.616 185.485 153.224 184.633 153.828L191.988 168.842C222.937 153.411 252.027 141.776 265.283 116.3C269.732 107.749 268.226 78.7049 268.651 68.1387L258.876 64.1299C245.25 92.2957 226.809 119.317 199.416 142.399Z" fill="#69A1AC"/>
<path fill-rule="evenodd" clip-rule="evenodd" d="M302.988 166.375C274.254 169.531 251.637 169.531 235.138 166.375C233.094 165.984 233.183 157.172 234.131 154.765C248.894 117.287 258.605 89.8515 258.605 63.8203C261.314 65.2352 266.054 65.4472 272.827 64.4564C291.027 91.2825 299.394 122.062 302.988 166.375Z" fill="#191847"/>
<path fill-rule="evenodd" clip-rule="evenodd" d="M308.327 170.806C309.303 169.888 309.811 168.511 309.561 167.093L309.085 164.393C308.763 162.563 307.276 161.23 305.522 161.022C305.215 159.651 304.951 158.289 304.732 156.937C302.887 145.516 306.039 134.317 305.891 123.32C320.588 135.859 333.772 157.51 345.444 188.275L362.706 183.195C362.047 180.748 361.365 178.331 360.659 175.945C362.652 174.813 364.98 169.625 363.304 168.757C361.574 167.86 359.741 167.229 357.81 166.858C341.982 119.186 316.099 84.3211 280.161 62.2641H276.981L269.766 62.2641C272.827 102.736 230.556 191.093 245.233 266.554C272.363 272.612 311.093 253.763 348.794 268.822C347.391 238.434 319.29 202.734 308.327 170.806V170.806Z" fill="#89C5CC"/>
<path fill-rule="evenodd" clip-rule="evenodd" d="M276.386 63.1781L281.101 77.6787L271.606 88.5492L280.187 97.0916L259.426 132.64L284.815 97.1626L276.386 88.5492L284.815 78.9428L276.386 63.1781Z" fill="black" fill-opacity="0.1"/>
<path fill-rule="evenodd" clip-rule="evenodd" d="M265.515 146.35C267.534 146.35 269.171 144.713 269.171 142.694C269.171 140.675 267.534 139.038 265.515 139.038C263.496 139.038 261.859 140.675 261.859 142.694C261.859 144.713 263.496 146.35 265.515 146.35ZM260.945 167.371C262.964 167.371 264.601 165.734 264.601 163.715C264.601 161.696 262.964 160.059 260.945 160.059C258.926 160.059 257.289 161.696 257.289 163.715C257.289 165.734 258.926 167.371 260.945 167.371ZM260.031 188.393C262.05 188.393 263.687 186.756 263.687 184.737C263.687 182.718 262.05 181.081 260.031 181.081C258.012 181.081 256.375 182.718 256.375 184.737C256.375 186.756 258.012 188.393 260.031 188.393Z" fill="black" fill-opacity="0.4"/>
<path fill-rule="evenodd" clip-rule="evenodd" d="M326.512 73.0029C330.723 68.0594 333.574 62.0011 333.097 55.2126C331.725 35.6532 304.497 39.956 299.201 49.8279C293.905 59.6999 294.534 84.7409 301.379 86.5053C304.109 87.209 309.924 85.4853 315.843 81.9179L312.128 108.2H334.063L326.512 73.0029Z" fill="#B28B67"/>
<path fill-rule="evenodd" clip-rule="evenodd" d="M304.144 43.3182C304.647 43.0183 305.698 42.3858 306.23 42.1565C306.356 42.1014 307.239 41.4718 307.262 41.4797C307.931 41.7052 309.865 42.5373 310.031 43.2564C310.057 43.3109 310.082 43.362 310.107 43.4067C310.381 43.905 310.632 44.4157 310.872 44.9326C311.399 46.0673 311.853 47.2533 312.287 48.4299C313.133 50.7215 313.867 53.0664 314.543 55.4166C315.23 57.8091 315.814 60.2296 316.467 62.632C317.407 66.0889 318.61 69.461 319.544 72.9165C320.14 75.1229 320.471 77.3552 320.315 79.6262C320.313 79.6535 320.312 79.6804 320.31 79.7081C320.309 79.7195 320.308 79.7307 320.307 79.7421C320.28 80.0912 320.242 80.4411 320.191 80.7921C320.147 81.0922 320.103 81.3935 320.055 81.6946C319.203 79.9943 318.552 78.1207 317.861 76.3424C317.793 76.1683 317.729 75.9929 317.666 75.817C317.443 75.4564 317.216 75.0983 316.986 74.7416C315.538 72.4923 314.084 70.2513 312.695 67.9613C310.197 63.8426 307.722 59.6368 304.76 55.8547C303.886 54.7378 302.991 53.6381 302.127 52.5121C301.636 51.8713 301.157 51.2198 300.694 50.5568C300.363 50.0826 298.923 48.4299 299.445 47.437C299.711 46.9289 302.841 44.0962 304.144 43.3182Z" fill="#2C2C2C"/>
<path fill-rule="evenodd" clip-rule="evenodd" d="M306.072 42.2394C305.583 42.4036 305.821 41.3869 306.294 41.0291C308.487 39.3714 316.869 38.7699 324.163 40.2842C329.05 41.2986 334.733 43.8233 338.636 47.0691C342.155 49.9952 344.574 54.6859 345.82 59.2179C347.128 63.9765 347.326 68.9376 346.598 73.8174C346.437 74.8893 346.093 75.9108 345.902 76.9599C345.686 78.1414 345.575 79.2789 345.19 80.4283C344.955 81.1321 344.554 81.8219 344.353 82.5297C344.124 83.3373 344.264 84.0844 344.431 84.9058C344.704 86.2446 345.042 87.5806 345.523 88.8592C346.244 90.7793 347.12 92.5776 347.669 94.57C348.4 97.2211 351.456 105.848 349.223 108.2H306.706C307.776 105.28 310.99 101.843 311.641 98.7163C312.024 96.8747 312.206 92.8529 312.246 92.7068C313.204 86.1021 315.075 82.9481 316.247 81.8035C317.418 80.6588 318.979 80.3069 319.059 79.314C319.392 75.2075 317.759 71.2729 316.561 67.4404C315.134 62.8727 314.089 58.1917 312.617 53.6395C311.966 51.6237 308.609 41.3869 306.072 42.2394Z" fill="#8991DC"/>
<path fill-rule="evenodd" clip-rule="evenodd" d="M320.979 46.9636C322.582 52.0507 322.927 54.7662 322.582 61.7171H323.368C324.838 55.1576 323.53 48.9825 321.967 46.9636H320.979ZM342.488 60.0922C339.5 67.3419 338.138 71.623 329.795 77.4896L330.439 77.9407C338.722 73.2466 341.133 67.6474 343.116 60.3942L342.488 60.0922ZM330.212 52.7146C328.855 63.0048 328.459 68.8826 321.39 80.1387L322.142 80.3687C329.417 70.568 330.571 62.5689 330.914 52.7711L330.212 52.7146ZM338.021 83.2816L337.378 82.4993C328.597 85.2497 329.575 90.9279 318.515 96.6784L319.44 97.2384C329.124 93.2418 331.387 84.6699 338.021 83.2816Z" fill="black" fill-opacity="0.2"/>
<path fill-rule="evenodd" clip-rule="evenodd" d="M373.709 222.447H303.1L293.848 335.78H398.955L373.709 222.447Z" fill="#C5CFD6"/>
<path fill-rule="evenodd" clip-rule="evenodd" d="M373.709 222.447H351.993L338.995 335.78H398.955L373.709 222.447Z" fill="black" fill-opacity="0.1"/>
<path fill-rule="evenodd" clip-rule="evenodd" d="M222.601 203.03C215.073 198.51 202.442 204.318 202.451 210.783C202.477 230.127 220.13 321.294 221.052 327.057C221.973 332.82 231.847 334.343 232.422 327.076C233.337 315.514 235.037 275.487 233.336 256.961C232.634 249.313 231.878 242.03 231.134 235.533C240.397 252.261 254.724 276.212 274.113 307.386L284.638 302.577C276.373 275.344 269.595 256.118 264.305 244.9C255.248 225.691 246.755 209.241 243.181 203.447C237.559 194.333 227.772 197.513 222.601 203.03Z" fill="#B28B67"/>
<path fill-rule="evenodd" clip-rule="evenodd" d="M283.886 287.453L247.759 201.871C239.104 187.949 214.839 204.704 217.79 212.778C224.491 231.111 258.569 290.459 260.565 295.921L283.886 287.453Z" fill="#191847"/>
<path fill-rule="evenodd" clip-rule="evenodd" d="M285.892 297.18C288.143 299.033 289.607 300.546 290.284 301.719C291.108 303.147 292.073 305.367 293.179 308.38C291.523 309.336 276.642 317.927 248.535 334.155C245.161 330.989 244.635 328.532 246.958 326.783C249.281 325.034 251.198 323.559 252.709 322.358L268.118 301.128C268.414 300.719 268.986 300.628 269.394 300.925C269.401 300.93 269.408 300.935 269.415 300.94L272.617 303.406C275.554 303.15 277.746 302.604 279.193 301.769C280.368 301.09 281.717 299.678 283.24 297.533L283.24 297.533C283.824 296.71 284.966 296.516 285.789 297.101C285.824 297.126 285.859 297.152 285.892 297.18Z" fill="#E4E4E4"/>
<path fill-rule="evenodd" clip-rule="evenodd" d="M234.734 322.437C235.757 325.167 236.268 327.209 236.268 328.564C236.268 330.212 235.993 332.618 235.444 335.78C233.532 335.78 216.349 335.78 183.894 335.78C182.555 331.351 183.328 328.96 186.214 328.607C189.1 328.254 191.498 327.935 193.407 327.65L217.367 316.969C217.828 316.763 218.368 316.97 218.574 317.432C218.577 317.439 218.581 317.447 218.584 317.455L220.124 321.191C222.796 322.438 224.967 323.061 226.638 323.061C227.995 323.061 229.869 322.513 232.261 321.417L232.261 321.417C233.178 320.996 234.263 321.399 234.684 322.317C234.702 322.356 234.719 322.397 234.734 322.437Z" fill="#E4E4E4"/>
<path fill-rule="evenodd" clip-rule="evenodd" d="M199.919 217.359C199.919 241.64 211.45 298.279 211.457 303.626L236.268 303.645C232.636 253.106 231.349 227.565 232.405 227.02C233.989 226.204 297.343 233.346 316.344 233.346C343.744 233.346 355.079 216.068 355.998 184.06H301.721C290.669 185.242 233.024 196.869 211.616 200.866C202.451 202.577 199.919 210.67 199.919 217.359Z" fill="#191847"/>
<path fill-rule="evenodd" clip-rule="evenodd" d="M255.925 172.599L230.034 197.857C222.5 201.07 216.328 204.618 211.516 208.501C210.434 209.806 209.256 212.307 214.347 211.188C219.438 210.069 224.844 209.121 225.8 210.777C226.757 212.432 223.938 214.969 225.706 217.136C226.885 218.581 230.85 213.986 237.601 203.352L264.524 187.478L255.925 172.599ZM382.531 149.74L362.518 149.815C377.761 199.2 385.852 225.058 386.792 227.387C388.907 232.629 384.432 240.611 382.518 244.9C388.751 247.69 388.087 237.36 395.95 241.018C403.127 244.357 408.587 250.407 416.879 245.291C417.899 244.662 419.016 242.293 416.317 240.443C409.592 235.831 399.901 227.761 398.592 225.105C396.806 221.482 391.453 196.361 382.531 149.74Z" fill="#B28B67"/>
<path fill-rule="evenodd" clip-rule="evenodd" d="M321.546 92.9658L313.643 91.6102C301.193 135.62 237.225 165.618 233.298 182.07C231.858 188.104 236.2 191.154 233.957 192.991L244.23 200.511C245.97 198.482 249.682 202.194 257.434 199.597C265.187 197 321.546 145.077 321.546 92.9658Z" fill="#DB2721"/>
<path fill-rule="evenodd" clip-rule="evenodd" d="M308.252 98.8167C309.163 157.082 275.481 171.945 282.984 195.318C289.179 214.62 348.479 235.369 358.74 216.449C362.894 208.79 364.779 199.528 364.992 189.457C367.615 197.194 369.689 203.854 371.215 209.439C373.847 219.072 384.052 220.603 384.052 224.314L397.496 220.603C396.584 215.561 402.922 213.106 401.223 201.843C393.608 151.376 373.151 114.793 339.849 92.0965L339.505 87.1696C339.364 85.1554 337.617 83.6368 335.603 83.7776L310.985 85.499C308.971 85.6399 307.453 87.3868 307.593 89.401L308.252 98.8167Z" fill="#FF4133"/>
<path fill-rule="evenodd" clip-rule="evenodd" d="M100.673 53.8869C97.8501 47.9498 96.6502 41.2792 98.8945 34.7662C105.361 16.0006 130.857 27.3415 133.449 38.3819C136.041 49.4223 128.865 73.7425 121.71 73.6743C118.856 73.6471 113.622 70.4382 108.769 65.3993L105.516 92.0711L84.0674 86.324L100.673 53.8869Z" fill="#D4A181"/>
<path fill-rule="evenodd" clip-rule="evenodd" d="M108.457 54.5312C104.429 58.9238 99.7202 61.7828 96.0453 60.7981C89.065 58.9277 86.6024 48.2654 89.291 38.2314C89.3855 37.8788 89.4863 37.5305 89.5932 37.1866C80.8516 40.2751 72.4847 48.738 62.7146 46.1201C49.4224 42.5585 51.3273 14.3335 69.8984 19.3096C82.5282 22.6937 88.2473 26.1998 92.8716 30.3574C94.7252 27.6634 97.0061 25.592 99.4434 24.3717C100.06 23.9654 100.923 23.6498 101.986 23.4279C102.643 23.268 103.304 23.1716 103.965 23.1427C107.512 22.8213 112.413 23.2376 117.686 24.4549C118.67 24.6823 119.631 24.929 120.562 25.192C121.897 20.2734 126.96 17.358 131.886 18.678C136.822 20.0005 139.751 25.0738 138.429 30.0094C137.15 34.7827 132.363 37.6792 127.585 36.6685C124.667 36.7779 121.042 36.4607 117.133 35.6893C117.13 37.1911 116.906 38.838 116.424 40.6376C115.998 42.2267 115.371 43.865 114.59 45.4897C114.022 44.2768 113.082 43.3325 111.951 43.0297C108.79 42.1826 105.892 44.1937 105.153 46.955C104.214 50.4596 105.557 53.537 108.457 54.5312Z" fill="#191847"/>
<path fill-rule="evenodd" clip-rule="evenodd" d="M56.7091 168.114L90.6003 284.9L106.541 372.585H122.541L106.57 168.114H56.7091Z" fill="#BA8B72"/>
<path fill-rule="evenodd" clip-rule="evenodd" d="M41.4781 168.114C43.843 228.784 42.9103 261.875 42.381 267.387C41.8518 272.899 38.847 309.815 18.372 374.435H35.013C62.1289 312.443 71.5948 275.527 74.7048 267.387C77.8148 259.247 86.9999 226.156 100.41 168.114H41.4781Z" fill="#D4A181"/>
<path fill-rule="evenodd" clip-rule="evenodd" d="M55.9816 168.114C64.7972 208.3 80.0445 272.448 101.723 360.557H125.125C126.853 270.122 119.5 210.6 106.767 168.114H55.9816Z" fill="#69A1AC"/>
<path fill-rule="evenodd" clip-rule="evenodd" d="M41.3599 168.114C43.6759 228.784 37.6738 288.555 19.0814 361.502H44.0494C71.2151 300.435 90.6856 240.959 103.992 168.114H41.3599Z" fill="#89C5CC"/>
<path fill-rule="evenodd" clip-rule="evenodd" d="M16 386.463L16.9182 371.66C22.2941 373.232 29.0276 372.615 37.1185 369.809C45.8183 375.972 56.7701 380.18 69.9741 382.433C70.9815 382.605 71.6588 383.561 71.4869 384.568C71.4757 384.634 71.4611 384.698 71.4431 384.762L70.1737 389.239H37.1185H17.8364L16 386.463Z" fill="#191847"/>
<path fill-rule="evenodd" clip-rule="evenodd" d="M102.97 386.463L103.888 371.66C109.264 373.232 115.997 372.615 124.088 369.809C132.788 375.972 143.74 380.18 156.944 382.433C157.951 382.605 158.628 383.561 158.456 384.568C158.445 384.634 158.431 384.698 158.413 384.762L157.143 389.239H124.088H104.806L102.97 386.463Z" fill="#191847"/>
<path fill-rule="evenodd" clip-rule="evenodd" d="M122.909 116.102L157.589 104.357C163.95 99.0391 169.987 95.1025 175.7 92.5471C177.375 92.1709 180.172 92.2578 176.823 96.3354C173.474 100.413 170.134 104.853 171.188 106.477C172.242 108.101 175.826 106.723 176.967 109.314C177.728 111.042 171.762 112.506 159.068 113.708L132.378 130.696L122.909 116.102ZM169.864 139.45L185.102 134.268C188.359 127.195 191.347 123.874 194.066 124.306C196.319 123.704 191.04 132.436 195.131 132.32C199.222 132.203 210.122 126.736 211.525 128.484C213.602 131.069 210.246 137.293 207.086 140.126C201.18 145.421 196.816 146.818 186.461 147.83C181.047 148.359 174.959 150.259 168.197 153.531L169.864 139.45Z" fill="#D4A181"/>
<path fill-rule="evenodd" clip-rule="evenodd" d="M108.187 109.528C119.285 111.364 134.47 111.629 151.996 104.403L155.751 119.299C142.977 128.171 126.127 134.34 112.826 131.608C102.345 129.455 99.2079 115.764 108.187 109.528Z" fill="#FECB17"/>
<path fill-rule="evenodd" clip-rule="evenodd" d="M119.2 134.295C130.443 139.301 150.773 139.32 180.192 134.351C184.553 149.766 185.942 160.453 184.357 166.411C158.423 174.628 137.095 176.57 120.262 173.978C119.041 184.022 116.16 193.276 110.567 201.209C99.0672 217.518 52.9973 192.413 35.9591 192.751C31.5522 157.444 53.8903 147.349 57.6847 125.924C61.84 102.461 87.0512 69.6632 89.8235 70.152L115.105 74.6098C113.34 92.7773 116.878 113.766 119.2 134.295Z" fill="#FECB17"/>
</svg>
