<svg width="454" height="422" viewBox="0 0 454 422" fill="none" xmlns="http://www.w3.org/2000/svg">
<path fill-rule="evenodd" clip-rule="evenodd" d="M388.246 109.23C389.231 119.57 388.172 129.632 385.4 139.019C413.132 149.084 434.053 174.373 437.036 205.695C440.269 239.639 421.475 270.604 392.355 284.424C386.316 343.909 338.998 392.82 277.21 398.705C238.268 402.415 201.743 388.254 175.761 362.936C171.108 363.891 166.356 364.606 161.52 365.067C88.655 372.007 23.9603 318.565 17.0201 245.7C10.08 172.835 63.5225 108.14 136.387 101.2C172.195 97.7896 206.03 108.962 232.007 129.855C231.694 127.988 231.444 126.097 231.262 124.182C227.133 80.8324 258.928 42.3432 302.278 38.2142C345.628 34.0853 384.117 65.8802 388.246 109.23Z" fill="#349AE3" fill-opacity="0.5"/>
<path fill-rule="evenodd" clip-rule="evenodd" d="M156.826 43.9642C153.644 37.2719 152.292 29.7528 154.821 22.4114C162.11 1.25872 190.849 14.0422 193.771 26.487C196.693 38.9317 188.604 66.3454 180.539 66.2686C177.322 66.238 171.422 62.6208 165.952 56.941L162.285 87.0055L138.108 80.5274L156.826 43.9642Z" fill="#B28B67"/>
<path fill-rule="evenodd" clip-rule="evenodd" d="M190.245 17.8522C189.78 17.3733 188.808 16.3657 188.289 15.9558C188.167 15.8578 187.38 14.9033 187.352 14.905C186.549 14.9562 184.171 15.3021 183.775 16.0455C183.731 16.098 183.688 16.1469 183.648 16.1888C183.198 16.6571 182.77 17.1458 182.353 17.6446C181.438 18.7398 180.586 19.9127 179.761 21.0813C178.152 23.3573 176.65 25.7249 175.211 28.1158C173.747 30.5497 172.389 33.0452 170.96 35.5001C168.903 39.0326 166.581 42.394 164.531 45.9269C163.223 48.1827 162.198 50.5452 161.7 53.0943C161.693 53.1249 161.686 53.1548 161.681 53.1861C161.679 53.1989 161.677 53.2117 161.675 53.2245C161.601 53.6171 161.539 54.0141 161.492 54.4159C161.452 54.7597 161.412 55.1048 161.375 55.4508C162.817 53.8285 164.088 51.9557 165.374 50.1998C165.5 50.0279 165.623 49.8536 165.744 49.6783C166.096 49.3466 166.453 49.0191 166.811 48.6938C169.072 46.6424 171.336 44.6018 173.543 42.488C177.513 38.6863 181.483 34.7816 185.864 31.4877C187.158 30.515 188.469 29.5672 189.753 28.5812C190.484 28.0201 191.204 27.4434 191.911 26.8494C192.415 26.4245 194.49 25.0281 194.209 23.7797C194.065 23.141 191.452 19.0947 190.245 17.8522Z" fill="#2C2C2C"/>
<path fill-rule="evenodd" clip-rule="evenodd" d="M188.44 16.094C188.93 16.4193 188.968 15.2284 188.552 14.6943C186.625 12.2198 177.564 9.08137 169.077 8.59608C163.392 8.27099 156.382 9.37532 151.122 11.8001C146.379 13.986 142.327 18.4414 139.616 23.0685C136.769 27.9271 135.085 33.3366 134.447 38.9301C134.307 40.1588 134.385 41.3863 134.286 42.5992C134.175 43.9651 133.961 45.2516 134.046 46.6321C134.098 47.4773 134.335 48.356 134.348 49.1954C134.362 50.1532 133.988 50.9354 133.56 51.7913C132.864 53.1863 132.097 54.559 131.19 55.8263C129.827 57.7294 128.331 59.4528 127.137 61.4867C125.549 64.1929 119.633 72.799 121.4 76.0504L168.261 88.6068C167.943 85.0718 165.416 80.3346 165.623 76.6969C165.744 74.5539 166.731 70.0674 166.73 69.8944C167.625 62.332 166.494 58.3032 165.541 56.6956C164.587 55.088 162.971 54.2391 163.176 53.1211C164.022 48.4969 166.984 44.6425 169.436 40.772C172.357 36.1591 174.892 31.3087 177.858 26.7258C179.172 24.6964 185.895 14.4051 188.44 16.094Z" fill="#8991DC"/>
<path fill-rule="evenodd" clip-rule="evenodd" d="M170.614 16.8985C167.345 22.0319 166.163 24.923 164.49 32.6859L163.623 32.4536C163.941 24.79 167.206 18.3702 169.525 16.6066L170.614 16.8985ZM143.03 25.0162C144.182 33.889 144.419 39.0098 151.882 47.9398L151.039 48.2468C143.297 40.627 142.292 33.7434 142.248 25.1635L143.03 25.0162ZM158.739 20.5102C157.196 32.2526 155.897 38.848 160.364 53.3419L159.467 53.3732C154.342 40.4226 155.434 31.2655 157.948 20.3651L158.739 20.5102ZM141.105 51.8942L142.045 51.222C150.911 56.8466 148.156 62.8162 158.647 72.4204L157.463 72.7647C147.97 65.4998 148.006 55.3835 141.105 51.8942Z" fill="black" fill-opacity="0.2"/>
<path fill-rule="evenodd" clip-rule="evenodd" d="M107.575 172.707C109.456 198.372 230.598 273.934 231.305 276.054C231.619 276.996 219.05 306.782 193.598 365.411L204.187 369.526C243.227 307.434 261.744 273.079 259.738 266.463C256.868 256.991 225.537 225.829 165.746 172.98L107.575 172.707Z" fill="#B28B67"/>
<path fill-rule="evenodd" clip-rule="evenodd" d="M196.384 352.17L213.674 358.464C250.131 317.33 264.421 283.39 261.815 266.097C260.078 254.569 228.855 223.46 168.147 172.77L106.335 172.77C108.444 232.207 220.728 276.28 222.23 278.813C223.732 281.346 208.952 306.153 196.384 352.17Z" fill="#2F3676"/>
<path fill-rule="evenodd" clip-rule="evenodd" d="M189.701 363.389C187.54 365.917 186.195 367.907 185.666 369.361C185.022 371.128 184.378 373.814 183.733 377.418C185.783 378.165 204.208 384.871 239.007 397.536C242.172 393.311 242.276 390.445 239.319 388.94C236.362 387.435 233.915 386.158 231.98 385.108L210.457 364.304C210.043 363.904 209.383 363.915 208.983 364.329C208.976 364.336 208.969 364.343 208.962 364.35L205.853 367.755C202.502 368.049 199.93 367.87 198.139 367.218C196.684 366.689 194.888 365.369 192.752 363.261L192.752 363.261C191.932 362.451 190.611 362.46 189.802 363.28C189.767 363.315 189.734 363.352 189.701 363.389Z" fill="#E4E4E4"/>
<path fill-rule="evenodd" clip-rule="evenodd" d="M121.504 172.707L67.5384 302.262L14.4986 411.791H27.0124L163.922 172.707H121.504Z" fill="#997659"/>
<path fill-rule="evenodd" clip-rule="evenodd" d="M13.7501 406.735C12.5834 409.849 12 412.18 12 413.726C12 415.607 12.3133 418.351 12.9399 421.959C15.1216 421.959 34.7286 421.959 71.7611 421.959C73.2897 416.906 72.4073 414.177 69.114 413.774C65.8207 413.372 63.0849 413.008 60.9066 412.683L33.5671 400.495C33.041 400.26 32.4244 400.497 32.1899 401.023C32.1859 401.032 32.182 401.041 32.1782 401.05L30.4209 405.313C27.3722 406.735 24.8947 407.447 22.9887 407.447C21.44 407.447 19.3013 406.821 16.5726 405.57L16.5726 405.57C15.5254 405.09 14.2873 405.55 13.8073 406.597C13.7866 406.642 13.7675 406.688 13.7501 406.735Z" fill="#E4E4E4"/>
<path fill-rule="evenodd" clip-rule="evenodd" d="M19.2883 389.038L47.0942 394.252C68.5935 362.644 158.569 233.04 168.434 172.707H106.532C73.5881 216.322 39.7817 356.907 19.2883 389.038Z" fill="#5C63AB"/>
<path fill-rule="evenodd" clip-rule="evenodd" d="M210.964 168.194L235.053 201.707C242.882 206.81 249.115 212.021 253.753 217.338C254.71 219.019 255.538 222.062 250.039 219.796C244.54 217.53 238.654 215.393 237.25 217.064C235.847 218.735 238.513 222.145 236.096 224.229C234.485 225.619 230.94 219.67 225.461 206.382L198.352 183.211L210.964 168.194ZM81.1201 149.427L102.568 153.295C81.7723 193.739 70.6156 215.177 69.0978 217.608C65.6828 223.079 69.1302 232.935 70.4309 238.135C62.8737 240.034 65.6668 228.558 56.1059 231.111C47.3792 233.441 40.0453 239.158 31.741 231.765C30.72 230.856 29.9339 227.973 33.3338 226.428C41.8043 222.579 54.2931 215.431 56.2909 212.705C59.0151 208.988 67.2915 187.895 81.1201 149.427Z" fill="#B28B67"/>
<path fill-rule="evenodd" clip-rule="evenodd" d="M157.994 70.1214L167.143 70.164C175.699 111.056 196.274 150.47 228.87 188.404L193.912 218.305C163.654 167.14 148.257 117.142 157.994 70.1214Z" fill="#191847"/>
<path fill-rule="evenodd" clip-rule="evenodd" d="M99.5995 174.902L178.682 188.847C168.216 141.068 165.728 101.61 171.218 70.4715L147.99 62.7108C123.925 89.5576 112.084 125.748 99.5995 174.902Z" fill="#DDE3E9"/>
<path fill-rule="evenodd" clip-rule="evenodd" d="M147.482 62.6386C147.486 62.6335 147.49 62.6285 147.494 62.6234L149.051 62.898C150.903 63.2907 153.721 63.9067 157.504 64.7461L160.364 82.2356C157.432 102.428 153.856 143.531 149.635 205.547L97.7947 196.406C97.1893 200.633 96.6652 204.916 96.2224 209.253L57.6765 202.457C74.9123 138.424 104.842 91.8113 147.466 62.6184L147.482 62.6386L147.482 62.6386Z" fill="#2F3676"/>
<path fill-rule="evenodd" clip-rule="evenodd" d="M110.704 143.22C107.558 169.685 108.067 188.401 112.229 199.368L97.7367 196.813C100.427 177.847 104.749 159.983 110.704 143.22L110.704 143.22Z" fill="black" fill-opacity="0.1"/>
<path fill-rule="evenodd" clip-rule="evenodd" d="M114.876 167.006L142.534 159.63L140.438 171.514L114.876 167.006Z" fill="white" fill-opacity="0.2"/>
<path d="M412.336 248.512C412.118 252.853 411.646 258.54 410.919 266.933C410.883 267.278 410.865 267.641 410.829 268.023C410.792 268.549 410.738 269.076 410.683 269.621C410.538 271.256 410.411 272.819 410.265 274.254C410.175 275.162 410.102 276.034 410.029 276.852C409.757 279.722 407.468 281.975 404.597 282.193C399.511 282.574 393.207 283.01 386.031 283.464C372.424 284.336 365.503 284.772 359.871 284.718C350.533 284.627 347.754 283.937 332.694 282.956C325.245 282.465 318.796 282.174 313.728 281.993C310.73 281.884 308.296 279.54 308.06 276.561C307.969 275.489 307.896 274.399 307.824 273.255C307.696 271.438 307.587 269.512 307.478 267.514C307.46 267.06 307.424 266.606 307.406 266.151C307.279 263.681 307.206 261.446 307.151 259.521C307.079 257.032 307.042 255.07 307.024 253.78C306.915 244.588 307.206 237.666 307.279 236.158C307.297 235.704 307.315 235.232 307.351 234.759C307.497 231.635 307.733 228.11 308.06 224.259C308.296 221.407 310.549 219.136 313.401 218.882C316.634 218.591 320.504 218.337 324.9 218.282C331.44 218.191 335.164 218.573 340.76 218.791C351.351 219.191 358.236 218.591 364.667 218.282C373.551 217.864 386.576 217.755 405.161 219.063C407.831 219.245 410.047 221.207 410.538 223.841C412.082 231.889 412.445 238.556 412.482 243.443C412.482 244.951 412.445 246.604 412.336 248.512Z" fill="#A4A4A4"/>
<path d="M396.131 274.545C373.205 274.781 355.638 273.927 332.639 273.473C322.084 273.255 323.955 273.4 317.397 273.237C315.853 273.2 313.691 273.146 310.748 273.182C309.803 273.2 308.822 273.218 307.805 273.255C307.878 274.399 307.969 275.489 308.041 276.561C308.277 279.54 310.712 281.884 313.709 281.993C318.778 282.175 325.245 282.483 332.675 282.956C341.359 283.519 345.955 283.991 350.097 284.3C349.915 285.263 349.77 286.117 349.643 286.843C349.171 289.75 349.098 291.149 348.571 294.183C348.335 295.6 348.081 296.871 347.844 297.961C346.7 298.016 345.356 298.161 343.92 298.506C342.394 298.87 341.214 299.342 340.505 299.633C340.687 301.141 340.868 302.648 341.05 304.156C353.567 304.156 366.102 304.156 378.619 304.156C378.728 302.449 378.837 300.741 378.946 299.033C378.201 298.815 376.838 298.434 375.113 298.07C373.587 297.762 372.224 297.562 370.952 297.453C370.825 296.908 370.68 296.326 370.553 295.691C369.99 293.056 369.753 291.276 369.227 287.534C369.118 286.698 368.972 285.681 368.791 284.5C373.132 284.3 378.564 283.955 386.031 283.464C393.225 283.01 399.51 282.556 404.597 282.193C407.467 281.975 409.775 279.722 410.029 276.852C410.102 276.034 410.192 275.162 410.265 274.254C404.27 274.436 399.42 274.508 396.131 274.545Z" fill="#191847"/>
<path d="M362.414 279.068C362.523 280.394 361.197 281.647 359.78 281.684C358.527 281.72 357.273 280.812 357.073 279.558C356.946 278.795 357.255 277.978 357.836 277.433C358.817 276.524 360.143 276.888 360.343 276.942C361.197 277.197 362.323 277.923 362.414 279.068Z" fill="#FFF200"/>
<path d="M321.394 262.754C316.907 262.664 311.62 261.574 307.151 259.521C307.079 257.032 307.042 255.07 307.024 253.78C306.915 244.588 307.206 237.666 307.279 236.158C307.297 235.704 307.315 235.232 307.351 234.76C312.075 235.959 314.8 243.934 320.776 244.424C328.007 245.024 330.623 233.833 338.671 233.888C344.375 233.942 350.515 239.61 350.788 244.86C351.206 253.58 335.473 263.027 321.394 262.754Z" fill="#FECB17"/>
<path d="M412.336 248.512C412.118 252.853 411.646 258.54 410.919 266.933C402.999 267.132 394.406 264.934 391.445 258.994C390.082 256.251 389.228 251.327 391.408 247.004C392.117 245.605 393.243 243.407 395.478 242.48C401.073 240.209 405.833 249.111 412.336 248.512Z" fill="#FECB17"/>
<path d="M385.086 235.922C384.033 241.227 377.456 245.405 371.588 244.878C363.105 244.134 356.964 233.651 359.126 227.947C359.907 225.876 362.051 223.714 364.322 223.678C367.574 223.642 367.937 228.038 372.297 229.618C377.166 231.381 380.853 227.384 383.615 229.618C385.904 231.471 385.141 235.668 385.086 235.922Z" fill="white"/>
<path d="M264.303 133.037C269.123 135.397 275.886 138.828 284.652 143.766C284.652 143.766 243.756 133.215 243.042 129.05C242.586 126.313 245.957 122.922 248.357 120.918C248.932 121.712 249.686 122.505 250.638 123.437C256.747 129.367 263.133 132.461 264.303 133.037Z" fill="#191847"/>
<path d="M353.99 110.764C348.397 131.153 345.6 141.347 337.191 146.404C330.428 150.45 323.526 150.212 313.192 149.836C300.816 149.379 290.939 146.285 284.672 143.767C291.257 144.362 299.091 144.917 307.976 145.254C318.845 145.651 326.183 145.532 333.76 141.307C334.037 141.149 334.275 141.03 334.593 140.831C340.919 136.805 343.557 127.86 348.833 109.951C352.859 96.2855 353.097 90.6529 352.482 88.0944C353.057 88.3522 353.533 88.6497 354.009 89.0662C357.679 92.299 357.084 99.4192 353.99 110.764Z" fill="#191847"/>
<path d="M283.958 143.29C284.196 143.449 284.414 143.608 284.632 143.746C275.866 138.808 269.123 135.377 264.283 133.017C263.133 132.461 256.747 129.347 250.598 123.397C249.646 122.465 248.893 121.672 248.318 120.879C247.742 120.085 247.346 119.312 247.068 118.399C246.136 115.305 247.167 112.172 248.476 109.653C250.023 114.115 254.823 118.697 263.252 126.61C271.384 134.226 278.762 139.72 283.958 143.29Z" fill="#FECB17"/>
<path d="M348.813 109.911C343.538 127.82 340.9 136.765 334.573 140.791C334.256 140.99 334.017 141.129 333.74 141.267C326.144 145.492 318.825 145.631 307.956 145.214C299.071 144.877 291.257 144.322 284.652 143.727C285.624 143.628 286.576 143.528 287.528 143.429C301.154 142.021 312.459 140.692 320.987 139.701C323.129 139.463 327.195 138.987 331.003 136.131C335.446 132.799 337.092 128.019 337.885 125.619C346.83 98.4076 348.932 88.5901 348.853 84.7028C349.904 84.9209 350.697 85.3374 351.392 86.0316C351.749 86.3886 352.185 86.9043 352.463 88.0348C353.077 90.6131 352.839 96.2458 348.813 109.911Z" fill="#FECB17"/>
<path d="M348.853 84.7425C348.833 82.9575 348.337 82.4418 347.861 82.0451C346.017 80.5973 344.192 81.3113 328.167 84.6235C324.2 85.4366 320.61 86.1506 317.476 86.7655C315.592 87.1423 313.887 87.4596 312.359 87.7571C312.28 87.777 312.201 87.7968 312.121 87.7968C311.209 87.9753 310.356 88.134 309.603 88.2728C309.464 88.0348 309.325 87.7968 309.186 87.5588C301.947 75.52 297.901 70.3831 297.901 70.3831C293.795 65.167 291.693 62.549 289.313 62.1126C284.414 61.1805 279.952 66.0793 271.939 75.1431C249.071 100.986 247.564 103.465 248.02 107.551C248.099 108.265 248.258 108.979 248.516 109.673C250.063 114.135 254.863 118.717 263.292 126.63C271.384 134.227 278.762 139.72 283.958 143.31C284.196 143.469 284.414 143.628 284.632 143.766C285.604 143.667 286.556 143.568 287.508 143.469C301.134 142.061 312.439 140.732 320.967 139.74C323.109 139.502 327.175 139.026 330.983 136.17C335.426 132.838 337.072 128.058 337.865 125.659C346.83 98.4473 348.912 88.6298 348.853 84.7425Z" fill="#F9F3EF"/>
<path d="M312.122 87.7969C307.996 95.4724 303.871 103.148 299.765 110.843C299.765 110.843 293.062 129.824 291.535 133.314C290.602 135.437 288.798 140.117 287.528 143.469C286.576 143.568 285.624 143.667 284.652 143.767C284.434 143.608 284.216 143.469 283.978 143.31C285.406 140.831 287.489 137.063 289.571 132.878C294.807 122.386 296.037 116.178 299.726 106.916C301.61 102.216 304.585 95.4724 309.186 87.5787C309.325 87.8167 309.464 88.0547 309.603 88.2927C310.376 88.1341 311.209 87.9754 312.122 87.7969Z" fill="#003163"/>
<path d="M283.958 69.7682C283.958 69.7682 284.612 73.1994 288.5 76.3132C292.387 79.4271 302.304 91.3072 302.304 91.3072L304.247 87.5786L286.556 66.5751L283.958 69.7682Z" fill="#191847"/>
<path d="M279.872 74.1317C279.872 74.1317 289.214 84.9607 292.685 87.5787C296.156 90.1967 300.717 94.7584 300.717 94.7584L299.408 96.2855C299.408 96.2855 288.54 88.9075 286.596 86.2895C284.632 83.6914 277.909 76.2935 277.909 76.2935L279.872 74.1317Z" fill="#191847"/>
<path d="M274.418 80.1411C274.418 80.1411 286.318 94.8971 289.333 96.2854C292.347 97.6738 296.393 102.89 296.393 102.89L295.243 105.389C295.243 105.389 290.086 100.371 283.998 94.2029C277.909 88.0348 272.514 81.3311 272.514 81.3311L274.418 80.1411Z" fill="#191847"/>
<path d="M268.567 88.0745C268.567 88.0745 278.306 99.439 281.558 101.065C284.811 102.692 292.923 109.673 292.923 109.673L291.455 113.56L266.604 90.514L268.567 88.0745Z" fill="#191847"/>
<path d="M260.932 94.897C260.932 94.897 265.811 99.4388 269.044 101.878C274.974 106.321 277.532 108.146 281.38 111.934C281.935 112.469 283.284 113.838 285.267 115.662C287.052 117.309 288.56 118.598 289.551 119.431C288.936 120.998 288.322 122.545 287.707 124.111C282.967 120.621 278.008 116.674 272.931 112.271C267.576 107.63 262.776 103.029 258.492 98.6256C259.305 97.3761 260.119 96.1266 260.932 94.897Z" fill="#191847"/>
<path d="M307.183 107.749C307.183 107.749 303.216 118.856 301.907 121.612C300.578 124.389 298.04 132.322 298.04 132.322C298.04 132.322 310.614 128.614 314.045 128.871C317.476 129.129 330.17 126.71 330.17 126.71L332.55 117.249L335.981 107.729H307.183V107.749ZM329.079 117.348L327.234 124.687C327.234 124.687 317.377 126.571 314.72 126.372C312.062 126.174 302.284 129.05 302.284 129.05C302.284 129.05 304.248 122.882 305.279 120.74C306.31 118.578 309.384 109.97 309.384 109.97H331.756L329.079 117.348Z" fill="#191847"/>
<path d="M309.266 100.807C309.266 100.807 321.86 100.986 325.231 100.807C328.603 100.629 341.197 100.113 341.197 100.113L342.328 96.2854C342.328 96.2854 335.168 95.7499 331.776 96.2854C328.385 96.8209 310.852 97.5547 310.852 97.5547L309.266 100.807Z" fill="#191847"/>
<path d="M312.756 92.7746C312.756 92.7746 320.709 92.3185 323.069 91.783C325.43 91.2475 344.013 90.8111 344.013 90.8111L344.549 88.7683C344.549 88.7683 343.359 89.522 340.9 89.522C338.44 89.522 332.312 89.4228 330.269 89.4228C328.226 89.4228 312.756 91.307 312.756 91.307V92.7746Z" fill="#191847"/>
<path d="M271.582 117.924C272.078 119.788 269.995 122.009 267.893 122.148C266.961 122.208 265.711 121.87 264.918 120.819C264.839 120.72 263.887 119.411 264.383 117.904C264.918 116.337 266.663 115.762 267.814 115.722C269.301 115.702 271.185 116.456 271.582 117.924Z" fill="#003163"/>
<path d="M314.323 135.099C314.184 136.567 312.776 137.638 311.368 137.777C309.999 137.896 308.294 137.142 307.976 135.694C307.719 134.544 308.433 133.394 309.226 132.858C309.781 132.481 310.356 132.422 310.932 132.342C311.705 132.263 312.498 132.164 313.193 132.62C314.026 133.136 314.422 134.187 314.323 135.099Z" fill="#003163"/>
<path d="M319.698 339.282C317.797 345.256 311.235 345.032 302.142 350.813C296.608 354.333 287.526 361.746 282.108 367.464C281.383 368.221 279.882 369.864 277.446 370.504C273.834 371.464 270.411 369.65 267.88 368.317C265.423 367.026 262.935 365.704 261.024 362.813C258 358.226 258.724 353.106 258.997 351.581C258.871 353.437 259.05 355.538 259.932 357.746C261.444 361.522 264.216 363.506 265.035 364.061C268.542 366.418 272.311 366.557 274.296 366.333C281.677 365.48 283.137 357.426 290.581 350.354C303.202 338.376 318.417 343.101 319.929 336.072C320.034 335.592 320.065 335.09 320.023 334.589C320.191 335.72 320.286 337.426 319.698 339.282Z" fill="#191847"/>
<path d="M320.023 334.6C319.666 329.896 313.45 324.659 308.662 322.365C302.688 319.496 297.196 320.36 292.377 321.117C278.979 323.219 270.684 331.464 267.828 334.376C261.57 340.776 260.121 345.949 259.795 347.187C259.491 348.349 259.113 349.853 258.997 351.592C258.871 353.448 259.05 355.549 259.932 357.757C261.444 361.533 264.216 363.517 265.035 364.072C268.542 366.429 272.311 366.568 274.296 366.344C281.677 365.491 283.137 357.437 290.581 350.365C303.202 338.387 318.417 343.112 319.929 336.083C320.034 335.592 320.065 335.101 320.023 334.6Z" fill="#FECB17"/>
<path d="M272.773 350.568C272.878 350.93 273.141 352.072 272.658 353.352C272.112 354.77 270.81 355.912 269.203 356.136C268.941 356.168 267.324 356.37 265.959 355.208C265.812 355.08 264.762 354.173 264.541 352.733C264.163 350.354 266.116 347.122 268.804 347.165C270.715 347.197 272.301 348.872 272.773 350.568Z" fill="white"/>
</svg>
