<svg width="237" height="69" viewBox="0 0 237 69" fill="none" xmlns="http://www.w3.org/2000/svg">
<g filter="url(#filter0_d_23_1124)">
<rect x="4" y="5" width="56" height="56" rx="17" fill="white"/>
</g>
<path fill-rule="evenodd" clip-rule="evenodd" d="M29.1481 15.3437C30.7101 13.7816 33.2428 13.7816 34.8049 15.3437L45.5194 26.0582C47.6252 28.164 46.1338 31.7645 43.1558 31.7645V31.7645C42.2692 31.7645 41.419 31.4123 40.7921 30.7854L34.8049 24.7982C33.2428 23.2361 30.7101 23.2361 29.1481 24.7982L23.1608 30.7854C22.534 31.4123 21.6837 31.7645 20.7972 31.7645V31.7645C17.8192 31.7645 16.3278 28.164 18.4336 26.0582L29.1481 15.3437Z" fill="#FECB17"/>
<path fill-rule="evenodd" clip-rule="evenodd" d="M34.9664 49.542C33.4044 51.1041 30.8717 51.1041 29.3096 49.542L18.5951 38.8276C16.4893 36.7218 17.9807 33.1212 20.9587 33.1212V33.1212C21.8453 33.1212 22.6955 33.4734 23.3224 34.1003L29.3096 40.0875C30.8717 41.6496 33.4044 41.6496 34.9665 40.0875L40.9537 34.1003C41.5805 33.4734 42.4308 33.1212 43.3173 33.1212V33.1212C46.2953 33.1212 47.7867 36.7218 45.6809 38.8276L34.9664 49.542Z" fill="#349AE3"/>
<path d="M78.584 39.608C78.584 36.92 79.112 34.536 80.168 32.456C81.256 30.376 82.712 28.776 84.536 27.656C86.392 26.536 88.456 25.976 90.728 25.976C92.712 25.976 94.44 26.376 95.912 27.176C97.416 27.976 98.616 28.984 99.512 30.2V26.408H106.28V53H99.512V49.112C98.648 50.36 97.448 51.4 95.912 52.232C94.408 53.032 92.664 53.432 90.68 53.432C88.44 53.432 86.392 52.856 84.536 51.704C82.712 50.552 81.256 48.936 80.168 46.856C79.112 44.744 78.584 42.328 78.584 39.608ZM99.512 39.704C99.512 38.072 99.192 36.68 98.552 35.528C97.912 34.344 97.048 33.448 95.96 32.84C94.872 32.2 93.704 31.88 92.456 31.88C91.208 31.88 90.056 32.184 89 32.792C87.944 33.4 87.08 34.296 86.408 35.48C85.768 36.632 85.448 38.008 85.448 39.608C85.448 41.208 85.768 42.616 86.408 43.832C87.08 45.016 87.944 45.928 89 46.568C90.088 47.208 91.24 47.528 92.456 47.528C93.704 47.528 94.872 47.224 95.96 46.616C97.048 45.976 97.912 45.08 98.552 43.928C99.192 42.744 99.512 41.336 99.512 39.704ZM128.587 53L119.563 41.672V53H112.843V17.48H119.563V37.688L128.491 26.408H137.227L125.515 39.752L137.323 53H128.587Z" fill="#349AE3"/>
<path d="M147.595 30.536C148.459 29.128 149.579 28.024 150.955 27.224C152.363 26.424 153.963 26.024 155.755 26.024V33.08H153.979C151.867 33.08 150.267 33.576 149.179 34.568C148.123 35.56 147.595 37.288 147.595 39.752V53H140.875V26.408H147.595V30.536ZM158.553 39.608C158.553 36.92 159.081 34.536 160.137 32.456C161.225 30.376 162.681 28.776 164.505 27.656C166.361 26.536 168.425 25.976 170.697 25.976C172.681 25.976 174.409 26.376 175.881 27.176C177.385 27.976 178.585 28.984 179.481 30.2V26.408H186.249V53H179.481V49.112C178.617 50.36 177.417 51.4 175.881 52.232C174.377 53.032 172.633 53.432 170.649 53.432C168.409 53.432 166.361 52.856 164.505 51.704C162.681 50.552 161.225 48.936 160.137 46.856C159.081 44.744 158.553 42.328 158.553 39.608ZM179.481 39.704C179.481 38.072 179.161 36.68 178.521 35.528C177.881 34.344 177.017 33.448 175.929 32.84C174.841 32.2 173.673 31.88 172.425 31.88C171.177 31.88 170.025 32.184 168.969 32.792C167.913 33.4 167.049 34.296 166.377 35.48C165.737 36.632 165.417 38.008 165.417 39.608C165.417 41.208 165.737 42.616 166.377 43.832C167.049 45.016 167.913 45.928 168.969 46.568C170.057 47.208 171.209 47.528 172.425 47.528C173.673 47.528 174.841 47.224 175.929 46.616C177.017 45.976 177.881 45.08 178.521 43.928C179.161 42.744 179.481 41.336 179.481 39.704ZM199.532 30.296C200.396 29.016 201.58 27.976 203.084 27.176C204.62 26.376 206.364 25.976 208.316 25.976C210.588 25.976 212.636 26.536 214.46 27.656C216.316 28.776 217.772 30.376 218.828 32.456C219.916 34.504 220.46 36.888 220.46 39.608C220.46 42.328 219.916 44.744 218.828 46.856C217.772 48.936 216.316 50.552 214.46 51.704C212.636 52.856 210.588 53.432 208.316 53.432C206.332 53.432 204.588 53.048 203.084 52.28C201.612 51.48 200.428 50.456 199.532 49.208V53H192.812V17.48H199.532V30.296ZM213.596 39.608C213.596 38.008 213.26 36.632 212.588 35.48C211.948 34.296 211.084 33.4 209.996 32.792C208.94 32.184 207.788 31.88 206.54 31.88C205.324 31.88 204.172 32.2 203.084 32.84C202.028 33.448 201.164 34.344 200.492 35.528C199.852 36.712 199.532 38.104 199.532 39.704C199.532 41.304 199.852 42.696 200.492 43.88C201.164 45.064 202.028 45.976 203.084 46.616C204.172 47.224 205.324 47.528 206.54 47.528C207.788 47.528 208.94 47.208 209.996 46.568C211.084 45.928 211.948 45.016 212.588 43.832C213.26 42.648 213.596 41.24 213.596 39.608Z" fill="#FECB17"/>
<defs>
<filter id="filter0_d_23_1124" x="0" y="5" width="64" height="64" filterUnits="userSpaceOnUse" color-interpolation-filters="sRGB">
<feFlood flood-opacity="0" result="BackgroundImageFix"/>
<feColorMatrix in="SourceAlpha" type="matrix" values="0 0 0 0 0 0 0 0 0 0 0 0 0 0 0 0 0 0 127 0" result="hardAlpha"/>
<feOffset dy="4"/>
<feGaussianBlur stdDeviation="2"/>
<feComposite in2="hardAlpha" operator="out"/>
<feColorMatrix type="matrix" values="0 0 0 0 0 0 0 0 0 0 0 0 0 0 0 0 0 0 0.25 0"/>
<feBlend mode="normal" in2="BackgroundImageFix" result="effect1_dropShadow_23_1124"/>
<feBlend mode="normal" in="SourceGraphic" in2="effect1_dropShadow_23_1124" result="shape"/>
</filter>
</defs>
</svg>
